<svg width="664" height="373" viewBox="0 0 664 373" fill="none" xmlns="http://www.w3.org/2000/svg">
<g clip-path="url(#clip0_1056_12181)">
<rect width="663.111" height="373" rx="22.1037" fill="#07503E"/>
<g opacity="0.4" filter="url(#filter0_f_1056_12181)">
<ellipse cx="331.647" cy="236.07" rx="77.2145" ry="0.853199" fill="black"/>
</g>
<path d="M267.059 136.246H396.745C399.29 136.246 401.353 138.309 401.353 140.854V229.928C401.353 230.21 401.124 230.44 400.841 230.44H262.964C262.681 230.44 262.452 230.21 262.452 229.928V140.854C262.452 138.309 264.515 136.246 267.059 136.246Z" fill="#E2E8F0" stroke="#CBD5E0" stroke-width="0.34128"/>
<path d="M263.134 140.683C263.134 138.609 264.815 136.929 266.888 136.929H396.915C398.989 136.929 400.67 138.609 400.67 140.683V227.027H263.134V140.683Z" fill="#E2E8F0"/>
<rect x="265.867" y="141.365" width="131.393" height="81.9071" fill="white"/>
<path d="M245.559 230.269C245.559 230.081 245.711 229.928 245.9 229.928H417.222C417.411 229.928 417.564 230.081 417.564 230.269V232.999H245.559V230.269Z" fill="#E2E8F0"/>
<path d="M245.559 230.269C245.559 230.081 245.711 229.928 245.9 229.928H417.222C417.411 229.928 417.564 230.081 417.564 230.269V232.999H245.559V230.269Z" fill="url(#paint0_linear_1056_12181)"/>
<path d="M245.559 233H417.564V233C410.853 235.594 403.72 236.924 396.525 236.924H264.789C258.18 236.924 251.639 235.589 245.559 233V233Z" fill="#E2E8F0"/>
<path d="M245.559 233H417.564V233C410.853 235.594 403.72 236.924 396.525 236.924H264.789C258.18 236.924 251.639 235.589 245.559 233V233Z" fill="url(#paint1_linear_1056_12181)"/>
<path fill-rule="evenodd" clip-rule="evenodd" d="M317.403 229.928C317.491 231.262 318.601 232.317 319.957 232.317H343.335C344.691 232.317 345.801 231.262 345.889 229.928H317.403Z" fill="#E2E8F0"/>
<path fill-rule="evenodd" clip-rule="evenodd" d="M317.403 229.928C317.491 231.262 318.601 232.317 319.957 232.317H343.335C344.691 232.317 345.801 231.262 345.889 229.928H317.403Z" fill="url(#paint2_linear_1056_12181)"/>
<path d="M305.121 174.266C305.121 167.672 305.121 164.375 306.404 161.857C307.533 159.641 309.334 157.84 311.55 156.711C314.068 155.428 317.365 155.428 323.959 155.428H339.18C345.774 155.428 349.071 155.428 351.589 156.711C353.805 157.84 355.606 159.641 356.735 161.857C358.018 164.375 358.018 167.672 358.018 174.266V189.487C358.018 196.081 358.018 199.378 356.735 201.897C355.606 204.112 353.805 205.913 351.589 207.042C349.071 208.325 345.774 208.325 339.18 208.325H323.959C317.365 208.325 314.068 208.325 311.55 207.042C309.334 205.913 307.533 204.112 306.404 201.897C305.121 199.378 305.121 196.081 305.121 189.487V174.266Z" fill="#07503E"/>
<path d="M325.429 194.599C332.272 194.599 335.25 192.38 335.25 189.051C335.25 185.891 332.237 183.773 326.493 183.773H325.429C323.692 183.773 320.384 183.835 320.384 182.826C320.384 181.683 323.089 181.789 325.004 181.789C330.109 181.789 333.619 179.839 333.619 176.645C333.619 175.266 333.052 174.325 331.953 173.585C333.158 173.349 334.328 173.047 335.321 172.643L333.869 169.154C331.494 170.331 328.402 170.684 325.353 170.684C320.496 170.684 316.956 172.341 316.956 176.073C316.956 177.889 317.807 179.065 319.225 179.973C317.168 180.545 315.562 181.75 315.562 183.566C315.562 185.213 316.956 186.328 318.516 187C316.637 187.74 315.573 188.883 315.573 190.463C315.573 192.548 318.161 194.599 325.429 194.599ZM325.358 178.09C323.125 178.09 322.061 177.283 322.061 176.039C322.061 174.795 323.125 173.921 325.358 173.921C327.557 173.921 328.549 174.795 328.549 176.039C328.549 177.283 327.557 178.09 325.358 178.09ZM325.394 191.069C322.309 191.069 321.175 190.531 321.175 189.556C321.175 188.581 322.309 188.043 325.394 188.043C328.478 188.043 329.577 188.581 329.577 189.556C329.577 190.531 328.478 191.069 325.394 191.069Z" fill="white"/>
<path d="M342.318 174.734V180.001V189.383H337.086V170.678H338.261C340.502 170.678 342.318 172.494 342.318 174.734Z" fill="white"/>
<path d="M345.41 177.4C346.711 177.254 350.033 176.461 351.701 172.198C349.961 170.55 347.277 170.162 345.093 171.419C343.279 172.463 342.313 174.363 342.313 176.321V177.432L344.484 177.432L344.484 177.432C344.793 177.434 345.102 177.435 345.41 177.4Z" fill="#2FCE65"/>
<circle cx="325.35" cy="185.819" r="174.182" stroke="white" stroke-width="0.898618"/>
<g filter="url(#filter1_d_1056_12181)">
<rect x="155.974" y="252.12" width="55.4276" height="55.4276" rx="17.3211" fill="white" shape-rendering="crispEdges"/>
<path fill-rule="evenodd" clip-rule="evenodd" d="M174.191 287.976C174.191 289.85 178.444 291.368 183.69 291.368C188.935 291.368 193.188 289.85 193.188 287.976V271.693C193.188 269.82 188.935 268.301 183.69 268.301C178.444 268.301 174.191 269.82 174.191 271.693V287.976Z" stroke="#07503E" stroke-width="2.03324" stroke-linecap="round" stroke-linejoin="round"/>
<path d="M193.188 271.693C193.188 273.567 188.935 275.086 183.69 275.086C178.444 275.086 174.191 273.567 174.191 271.693" stroke="#07503E" stroke-width="2.03324" stroke-linecap="round" stroke-linejoin="round"/>
<path d="M193.188 282.549C193.188 284.423 188.935 285.941 183.69 285.941C178.444 285.941 174.191 284.423 174.191 282.549" stroke="#07503E" stroke-width="2.03324" stroke-linecap="round" stroke-linejoin="round"/>
<path d="M193.188 277.121C193.188 278.995 188.935 280.513 183.69 280.513C178.444 280.513 174.191 278.995 174.191 277.121" stroke="#07503E" stroke-width="2.03324" stroke-linecap="round" stroke-linejoin="round"/>
</g>
<g filter="url(#filter2_d_1056_12181)">
<rect x="441.742" y="67.833" width="55.4276" height="55.4276" rx="17.3211" fill="white" shape-rendering="crispEdges"/>
<path fill-rule="evenodd" clip-rule="evenodd" d="M464.033 84.6918L465.797 82.4869C466.055 82.1653 466.444 81.978 466.857 81.978H472.066C472.478 81.978 472.868 82.1653 473.126 82.4869L474.888 84.6918V84.6918V86.0487C474.888 86.7977 474.28 87.4056 473.531 87.4056H465.39C464.641 87.4056 464.033 86.7977 464.033 86.0487V84.6918V84.6918V84.6918Z" stroke="#07503E" stroke-width="2.01009" stroke-linecap="round" stroke-linejoin="round"/>
<path d="M464.032 84.6914H461.318C459.819 84.6914 458.604 85.9058 458.604 87.4052V105.045C458.604 106.544 459.819 107.758 461.318 107.758H477.601C479.1 107.758 480.315 106.544 480.315 105.045V87.4052C480.315 85.9058 479.1 84.6914 477.601 84.6914H474.887" stroke="#07503E" stroke-width="2.01009" stroke-linecap="round" stroke-linejoin="round"/>
<path d="M464.033 94.1902H474.888" stroke="#07503E" stroke-width="2.01009" stroke-linecap="round" stroke-linejoin="round"/>
<path d="M464.033 100.975H474.888" stroke="#07503E" stroke-width="2.01009" stroke-linecap="round" stroke-linejoin="round"/>
</g>
<rect x="129.514" y="319.693" width="108.375" height="31.3748" rx="8.24988" fill="#55D680"/>
<path d="M142.317 333.401C142.276 332.987 142.1 332.666 141.789 332.437C141.478 332.208 141.056 332.093 140.523 332.093C140.16 332.093 139.854 332.145 139.605 332.247C139.355 332.346 139.164 332.485 139.031 332.662C138.901 332.84 138.836 333.042 138.836 333.267C138.829 333.455 138.868 333.619 138.954 333.76C139.043 333.9 139.164 334.021 139.318 334.124C139.472 334.223 139.649 334.31 139.851 334.385C140.053 334.457 140.268 334.518 140.497 334.57L141.44 334.795C141.898 334.898 142.319 335.035 142.702 335.205C143.084 335.376 143.416 335.587 143.696 335.836C143.976 336.086 144.193 336.379 144.347 336.718C144.504 337.056 144.585 337.444 144.588 337.882C144.585 338.524 144.421 339.081 144.096 339.553C143.775 340.021 143.31 340.385 142.702 340.645C142.097 340.901 141.367 341.03 140.512 341.03C139.665 341.03 138.926 340.9 138.298 340.64C137.672 340.38 137.183 339.996 136.831 339.486C136.483 338.974 136.3 338.34 136.283 337.584H138.431C138.455 337.936 138.556 338.23 138.733 338.466C138.914 338.699 139.155 338.875 139.456 338.994C139.76 339.11 140.104 339.168 140.487 339.168C140.863 339.168 141.189 339.114 141.466 339.004C141.746 338.895 141.963 338.743 142.117 338.548C142.271 338.353 142.348 338.129 142.348 337.877C142.348 337.641 142.278 337.442 142.138 337.282C142.001 337.121 141.799 336.984 141.533 336.872C141.269 336.759 140.946 336.656 140.564 336.564L139.42 336.277C138.535 336.062 137.836 335.725 137.323 335.267C136.811 334.809 136.556 334.192 136.56 333.416C136.556 332.78 136.725 332.225 137.067 331.75C137.412 331.275 137.886 330.904 138.487 330.637C139.089 330.371 139.772 330.237 140.538 330.237C141.317 330.237 141.997 330.371 142.578 330.637C143.163 330.904 143.618 331.275 143.942 331.75C144.267 332.225 144.434 332.775 144.445 333.401H142.317ZM146.04 343.834V333.006H148.194V334.329H148.291C148.387 334.117 148.525 333.901 148.706 333.683C148.891 333.461 149.13 333.276 149.424 333.129C149.722 332.979 150.091 332.903 150.532 332.903C151.106 332.903 151.636 333.054 152.121 333.355C152.606 333.652 152.994 334.101 153.285 334.703C153.575 335.301 153.72 336.051 153.72 336.954C153.72 337.832 153.579 338.574 153.295 339.179C153.015 339.78 152.632 340.237 152.147 340.548C151.665 340.855 151.125 341.009 150.526 341.009C150.103 341.009 149.742 340.939 149.445 340.799C149.151 340.659 148.91 340.483 148.722 340.271C148.534 340.055 148.39 339.838 148.291 339.62H148.224V343.834H146.04ZM148.178 336.943C148.178 337.412 148.243 337.82 148.373 338.169C148.503 338.517 148.691 338.789 148.937 338.984C149.183 339.175 149.482 339.271 149.834 339.271C150.19 339.271 150.491 339.174 150.737 338.979C150.983 338.781 151.169 338.507 151.295 338.158C151.425 337.806 151.49 337.401 151.49 336.943C151.49 336.489 151.427 336.089 151.301 335.744C151.174 335.399 150.988 335.129 150.742 334.934C150.496 334.739 150.193 334.641 149.834 334.641C149.479 334.641 149.178 334.735 148.932 334.923C148.689 335.111 148.503 335.378 148.373 335.723C148.243 336.068 148.178 336.475 148.178 336.943ZM158.765 341.035C157.955 341.035 157.258 340.871 156.674 340.542C156.093 340.211 155.645 339.743 155.33 339.138C155.016 338.529 154.859 337.81 154.859 336.979C154.859 336.169 155.016 335.458 155.33 334.847C155.645 334.235 156.087 333.758 156.658 333.416C157.232 333.074 157.906 332.903 158.678 332.903C159.198 332.903 159.681 332.987 160.129 333.155C160.58 333.319 160.973 333.567 161.308 333.898C161.647 334.23 161.91 334.647 162.098 335.149C162.286 335.648 162.38 336.232 162.38 336.902V337.502H155.73V336.149H160.324C160.324 335.834 160.256 335.556 160.119 335.313C159.982 335.07 159.792 334.881 159.55 334.744C159.31 334.604 159.032 334.534 158.714 334.534C158.383 334.534 158.089 334.611 157.832 334.764C157.579 334.915 157.381 335.118 157.238 335.375C157.094 335.628 157.02 335.909 157.017 336.221V337.507C157.017 337.897 157.089 338.234 157.232 338.517C157.379 338.801 157.586 339.02 157.853 339.174C158.119 339.327 158.435 339.404 158.801 339.404C159.044 339.404 159.266 339.37 159.468 339.302C159.669 339.233 159.842 339.131 159.986 338.994C160.129 338.857 160.238 338.69 160.314 338.492L162.334 338.625C162.231 339.11 162.021 339.534 161.703 339.896C161.389 340.255 160.982 340.536 160.483 340.737C159.987 340.936 159.415 341.035 158.765 341.035ZM165.989 336.328V340.881H163.805V333.006H165.887V334.395H165.979C166.153 333.937 166.445 333.575 166.856 333.308C167.266 333.038 167.763 332.903 168.347 332.903C168.894 332.903 169.371 333.023 169.778 333.262C170.185 333.502 170.501 333.843 170.726 334.288C170.952 334.729 171.065 335.255 171.065 335.867V340.881H168.881V336.256C168.884 335.774 168.761 335.399 168.512 335.129C168.262 334.855 167.919 334.718 167.481 334.718C167.187 334.718 166.927 334.782 166.702 334.908C166.48 335.035 166.305 335.219 166.179 335.462C166.056 335.701 165.993 335.99 165.989 336.328ZM175.688 341.009C175.09 341.009 174.548 340.855 174.063 340.548C173.581 340.237 173.198 339.78 172.914 339.179C172.634 338.574 172.494 337.832 172.494 336.954C172.494 336.051 172.639 335.301 172.93 334.703C173.22 334.101 173.606 333.652 174.088 333.355C174.574 333.054 175.105 332.903 175.683 332.903C176.124 332.903 176.491 332.979 176.785 333.129C177.082 333.276 177.322 333.461 177.503 333.683C177.687 333.901 177.827 334.117 177.923 334.329H177.99V330.381H180.169V340.881H178.015V339.62H177.923C177.821 339.838 177.675 340.055 177.487 340.271C177.303 340.483 177.062 340.659 176.765 340.799C176.471 340.939 176.112 341.009 175.688 341.009ZM176.38 339.271C176.732 339.271 177.029 339.175 177.272 338.984C177.518 338.789 177.706 338.517 177.836 338.169C177.969 337.82 178.036 337.412 178.036 336.943C178.036 336.475 177.971 336.068 177.841 335.723C177.711 335.378 177.523 335.111 177.277 334.923C177.031 334.735 176.732 334.641 176.38 334.641C176.021 334.641 175.719 334.739 175.473 334.934C175.226 335.129 175.04 335.399 174.914 335.744C174.787 336.089 174.724 336.489 174.724 336.943C174.724 337.401 174.787 337.806 174.914 338.158C175.044 338.507 175.23 338.781 175.473 338.979C175.719 339.174 176.021 339.271 176.38 339.271ZM186.871 335.703V337.436H182.082V335.703H186.871ZM188.773 340.881V330.381H192.977C193.749 330.381 194.394 330.496 194.91 330.725C195.426 330.954 195.814 331.271 196.074 331.678C196.333 332.081 196.463 332.546 196.463 333.073C196.463 333.483 196.381 333.843 196.217 334.154C196.053 334.462 195.828 334.715 195.54 334.913C195.257 335.108 194.932 335.246 194.566 335.328V335.431C194.966 335.448 195.34 335.561 195.689 335.769C196.041 335.978 196.327 336.27 196.545 336.646C196.764 337.019 196.873 337.463 196.873 337.979C196.873 338.536 196.735 339.033 196.458 339.471C196.185 339.905 195.78 340.249 195.243 340.501C194.706 340.754 194.045 340.881 193.259 340.881H188.773ZM190.993 339.066H192.803C193.421 339.066 193.872 338.948 194.156 338.712C194.44 338.473 194.582 338.155 194.582 337.759C194.582 337.468 194.512 337.212 194.371 336.99C194.231 336.767 194.031 336.593 193.772 336.467C193.515 336.34 193.209 336.277 192.854 336.277H190.993V339.066ZM190.993 334.775H192.639C192.943 334.775 193.213 334.722 193.449 334.616C193.688 334.506 193.876 334.353 194.013 334.154C194.153 333.956 194.223 333.719 194.223 333.442C194.223 333.062 194.088 332.756 193.818 332.524C193.551 332.292 193.172 332.175 192.68 332.175H190.993V334.775ZM200.522 341.03C200.02 341.03 199.572 340.942 199.179 340.768C198.786 340.59 198.475 340.329 198.246 339.984C198.021 339.635 197.908 339.201 197.908 338.681C197.908 338.244 197.988 337.877 198.149 337.579C198.309 337.282 198.528 337.043 198.805 336.861C199.082 336.68 199.396 336.544 199.748 336.451C200.104 336.359 200.476 336.294 200.866 336.256C201.324 336.209 201.693 336.164 201.973 336.123C202.254 336.079 202.457 336.014 202.583 335.928C202.71 335.843 202.773 335.716 202.773 335.549V335.518C202.773 335.193 202.671 334.942 202.466 334.764C202.264 334.587 201.977 334.498 201.604 334.498C201.211 334.498 200.898 334.585 200.666 334.759C200.434 334.93 200.28 335.146 200.205 335.405L198.185 335.241C198.287 334.763 198.489 334.349 198.79 334.001C199.09 333.649 199.478 333.379 199.953 333.191C200.432 332.999 200.986 332.903 201.614 332.903C202.052 332.903 202.471 332.955 202.871 333.057C203.274 333.16 203.631 333.319 203.942 333.534C204.257 333.749 204.504 334.026 204.685 334.365C204.867 334.7 204.957 335.101 204.957 335.569V340.881H202.886V339.789H202.824C202.698 340.035 202.529 340.252 202.317 340.44C202.105 340.625 201.85 340.77 201.553 340.876C201.256 340.978 200.912 341.03 200.522 341.03ZM201.148 339.522C201.469 339.522 201.753 339.459 201.999 339.333C202.245 339.203 202.438 339.028 202.578 338.81C202.718 338.591 202.789 338.343 202.789 338.066V337.231C202.72 337.275 202.626 337.316 202.507 337.354C202.39 337.388 202.259 337.42 202.112 337.451C201.965 337.478 201.818 337.504 201.671 337.528C201.524 337.548 201.391 337.567 201.271 337.584C201.015 337.622 200.791 337.682 200.599 337.764C200.408 337.846 200.259 337.957 200.153 338.097C200.047 338.234 199.994 338.405 199.994 338.61C199.994 338.907 200.102 339.134 200.317 339.292C200.536 339.445 200.813 339.522 201.148 339.522ZM213.204 335.252L211.204 335.375C211.17 335.204 211.097 335.05 210.984 334.913C210.871 334.773 210.722 334.662 210.538 334.58C210.357 334.494 210.14 334.452 209.887 334.452C209.548 334.452 209.263 334.524 209.03 334.667C208.798 334.807 208.682 334.995 208.682 335.231C208.682 335.419 208.757 335.578 208.907 335.708C209.058 335.838 209.316 335.942 209.682 336.021L211.107 336.308C211.872 336.465 212.443 336.718 212.819 337.066C213.195 337.415 213.383 337.873 213.383 338.44C213.383 338.957 213.231 339.409 212.927 339.799C212.626 340.189 212.213 340.493 211.686 340.712C211.163 340.927 210.56 341.035 209.876 341.035C208.834 341.035 208.003 340.818 207.385 340.384C206.77 339.946 206.409 339.351 206.303 338.599L208.451 338.487C208.516 338.804 208.673 339.047 208.923 339.215C209.172 339.379 209.492 339.461 209.882 339.461C210.264 339.461 210.572 339.387 210.804 339.24C211.04 339.09 211.16 338.897 211.163 338.661C211.16 338.463 211.076 338.3 210.912 338.174C210.748 338.044 210.495 337.945 210.153 337.877L208.79 337.605C208.021 337.451 207.448 337.184 207.072 336.805C206.699 336.426 206.513 335.942 206.513 335.354C206.513 334.848 206.65 334.412 206.923 334.047C207.2 333.681 207.588 333.399 208.087 333.201C208.59 333.003 209.177 332.903 209.851 332.903C210.845 332.903 211.628 333.114 212.199 333.534C212.773 333.954 213.108 334.527 213.204 335.252ZM218.347 341.035C217.537 341.035 216.84 340.871 216.256 340.542C215.675 340.211 215.227 339.743 214.912 339.138C214.598 338.529 214.441 337.81 214.441 336.979C214.441 336.169 214.598 335.458 214.912 334.847C215.227 334.235 215.669 333.758 216.24 333.416C216.814 333.074 217.488 332.903 218.26 332.903C218.78 332.903 219.263 332.987 219.711 333.155C220.162 333.319 220.555 333.567 220.89 333.898C221.229 334.23 221.492 334.647 221.68 335.149C221.868 335.648 221.962 336.232 221.962 336.902V337.502H215.312V336.149H219.906C219.906 335.834 219.838 335.556 219.701 335.313C219.564 335.07 219.374 334.881 219.132 334.744C218.892 334.604 218.614 334.534 218.296 334.534C217.965 334.534 217.671 334.611 217.414 334.764C217.161 334.915 216.963 335.118 216.82 335.375C216.676 335.628 216.602 335.909 216.599 336.221V337.507C216.599 337.897 216.671 338.234 216.814 338.517C216.961 338.801 217.168 339.02 217.435 339.174C217.701 339.327 218.017 339.404 218.383 339.404C218.626 339.404 218.848 339.37 219.05 339.302C219.251 339.233 219.424 339.131 219.568 338.994C219.711 338.857 219.82 338.69 219.896 338.492L221.916 338.625C221.813 339.11 221.603 339.534 221.285 339.896C220.971 340.255 220.564 340.536 220.065 340.737C219.569 340.936 218.997 341.035 218.347 341.035ZM226.289 341.009C225.691 341.009 225.149 340.855 224.664 340.548C224.182 340.237 223.799 339.78 223.515 339.179C223.235 338.574 223.095 337.832 223.095 336.954C223.095 336.051 223.24 335.301 223.531 334.703C223.821 334.101 224.207 333.652 224.689 333.355C225.175 333.054 225.706 332.903 226.284 332.903C226.725 332.903 227.092 332.979 227.386 333.129C227.683 333.276 227.923 333.461 228.104 333.683C228.288 333.901 228.428 334.117 228.524 334.329H228.591V330.381H230.77V340.881H228.616V339.62H228.524C228.422 339.838 228.276 340.055 228.088 340.271C227.904 340.483 227.663 340.659 227.365 340.799C227.072 340.939 226.713 341.009 226.289 341.009ZM226.981 339.271C227.333 339.271 227.63 339.175 227.873 338.984C228.119 338.789 228.307 338.517 228.437 338.169C228.57 337.82 228.637 337.412 228.637 336.943C228.637 336.475 228.572 336.068 228.442 335.723C228.312 335.378 228.124 335.111 227.878 334.923C227.632 334.735 227.333 334.641 226.981 334.641C226.622 334.641 226.32 334.739 226.074 334.934C225.827 335.129 225.641 335.399 225.515 335.744C225.388 336.089 225.325 336.489 225.325 336.943C225.325 337.401 225.388 337.806 225.515 338.158C225.645 338.507 225.831 338.781 226.074 338.979C226.32 339.174 226.622 339.271 226.981 339.271Z" fill="black"/>
<rect x="183.463" y="314.073" width="10.5367" height="10.5367" rx="2.06247" transform="rotate(45 183.463 314.073)" fill="#55D680"/>
<rect x="412.026" y="24.521" width="118.375" height="31.3748" rx="8.24988" fill="#55D680"/>
<path d="M421.178 45.7085H418.799L422.424 35.2087H425.285L428.904 45.7085H426.525L423.895 37.608H423.813L421.178 45.7085ZM421.029 41.5814H426.648V43.3142H421.029V41.5814ZM433.319 45.8623C432.512 45.8623 431.818 45.6914 431.237 45.3496C430.659 45.0044 430.215 44.5259 429.904 43.9141C429.596 43.3023 429.443 42.5982 429.443 41.8018C429.443 40.9952 429.598 40.2877 429.909 39.6793C430.224 39.0675 430.67 38.5907 431.247 38.2489C431.825 37.9037 432.512 37.7311 433.308 37.7311C433.995 37.7311 434.597 37.8558 435.113 38.1053C435.629 38.3548 436.038 38.7052 436.338 39.1563C436.639 39.6075 436.805 40.1373 436.836 40.7457H434.775C434.716 40.3526 434.563 40.0365 434.313 39.7972C434.067 39.5545 433.744 39.4332 433.344 39.4332C433.006 39.4332 432.71 39.5255 432.457 39.7101C432.208 39.8912 432.013 40.1561 431.873 40.5047C431.733 40.8533 431.663 41.2755 431.663 41.7711C431.663 42.2735 431.731 42.7007 431.868 43.0528C432.008 43.4048 432.204 43.6731 432.457 43.8577C432.71 44.0423 433.006 44.1345 433.344 44.1345C433.594 44.1345 433.818 44.0833 434.016 43.9807C434.217 43.8782 434.383 43.7295 434.513 43.5347C434.646 43.3365 434.734 43.0989 434.775 42.8221H436.836C436.801 43.4236 436.637 43.9534 436.343 44.4114C436.053 44.866 435.651 45.2214 435.139 45.4778C434.626 45.7341 434.019 45.8623 433.319 45.8623ZM442.423 37.8336V39.4742H437.68V37.8336H442.423ZM438.757 35.9469H440.941V43.2886C440.941 43.4903 440.972 43.6475 441.033 43.7603C441.095 43.8697 441.18 43.9466 441.29 43.991C441.402 44.0354 441.532 44.0576 441.679 44.0576C441.782 44.0576 441.884 44.0491 441.987 44.032C442.089 44.0115 442.168 43.9961 442.223 43.9859L442.566 45.6111C442.457 45.6453 442.303 45.6846 442.105 45.729C441.907 45.7769 441.666 45.8059 441.382 45.8162C440.855 45.8367 440.394 45.7666 439.998 45.606C439.605 45.4453 439.299 45.1958 439.08 44.8574C438.861 44.5191 438.753 44.0918 438.757 43.5757V35.9469ZM443.845 45.7085V37.8336H446.029V45.7085H443.845ZM444.942 36.8185C444.618 36.8185 444.339 36.7108 444.107 36.4955C443.878 36.2768 443.763 36.0153 443.763 35.7111C443.763 35.4103 443.878 35.1523 444.107 34.9369C444.339 34.7182 444.618 34.6088 444.942 34.6088C445.267 34.6088 445.544 34.7182 445.773 34.9369C446.005 35.1523 446.122 35.4103 446.122 35.7111C446.122 36.0153 446.005 36.2768 445.773 36.4955C445.544 36.7108 445.267 36.8185 444.942 36.8185ZM455.121 37.8336L452.367 45.7085H449.907L447.153 37.8336H449.461L451.096 43.4681H451.178L452.808 37.8336H455.121ZM456.238 45.7085V37.8336H458.422V45.7085H456.238ZM457.335 36.8185C457.011 36.8185 456.732 36.7108 456.5 36.4955C456.271 36.2768 456.156 36.0153 456.156 35.7111C456.156 35.4103 456.271 35.1523 456.5 34.9369C456.732 34.7182 457.011 34.6088 457.335 34.6088C457.66 34.6088 457.937 34.7182 458.166 34.9369C458.398 35.1523 458.515 35.4103 458.515 35.7111C458.515 36.0153 458.398 36.2768 458.166 36.4955C457.937 36.7108 457.66 36.8185 457.335 36.8185ZM464.361 37.8336V39.4742H459.618V37.8336H464.361ZM460.695 35.9469H462.879V43.2886C462.879 43.4903 462.91 43.6475 462.971 43.7603C463.033 43.8697 463.118 43.9466 463.227 43.991C463.34 44.0354 463.47 44.0576 463.617 44.0576C463.72 44.0576 463.822 44.0491 463.925 44.032C464.027 44.0115 464.106 43.9961 464.161 43.9859L464.504 45.6111C464.395 45.6453 464.241 45.6846 464.043 45.729C463.844 45.7769 463.603 45.8059 463.32 45.8162C462.793 45.8367 462.332 45.7666 461.936 45.606C461.542 45.4453 461.237 45.1958 461.018 44.8574C460.799 44.5191 460.691 44.0918 460.695 43.5757V35.9469ZM467.132 48.6616C466.855 48.6616 466.595 48.6394 466.352 48.5949C466.113 48.5539 465.915 48.5009 465.758 48.436L466.25 46.8056C466.506 46.8843 466.737 46.927 466.942 46.9338C467.15 46.9407 467.33 46.8928 467.48 46.7903C467.634 46.6877 467.759 46.5134 467.854 46.2673L467.983 45.9341L465.158 37.8336H467.455L469.085 43.6167H469.167L470.813 37.8336H473.125L470.064 46.5596C469.917 46.9834 469.717 47.3525 469.464 47.667C469.215 47.9848 468.899 48.2292 468.516 48.4001C468.133 48.5744 467.672 48.6616 467.132 48.6616ZM479.149 40.5304V42.2632H474.36V40.5304H479.149ZM481.051 45.7085V35.2087H485.255C486.028 35.2087 486.672 35.3232 487.188 35.5522C487.704 35.7812 488.092 36.099 488.352 36.5058C488.611 36.9091 488.741 37.3739 488.741 37.9003C488.741 38.3104 488.659 38.671 488.495 38.982C488.331 39.2896 488.106 39.5426 487.819 39.7408C487.535 39.9356 487.21 40.0741 486.844 40.1561V40.2586C487.244 40.2757 487.619 40.3885 487.967 40.597C488.319 40.8055 488.605 41.0977 488.823 41.4737C489.042 41.8462 489.152 42.2906 489.152 42.8067C489.152 43.3638 489.013 43.8611 488.736 44.2986C488.463 44.7327 488.058 45.0762 487.521 45.3291C486.985 45.582 486.323 45.7085 485.537 45.7085H481.051ZM483.271 43.8936H485.081C485.699 43.8936 486.151 43.7757 486.434 43.5398C486.718 43.3006 486.86 42.9827 486.86 42.5862C486.86 42.2957 486.79 42.0394 486.65 41.8172C486.509 41.595 486.31 41.4207 486.05 41.2943C485.793 41.1678 485.488 41.1046 485.132 41.1046H483.271V43.8936ZM483.271 39.6024H484.917C485.221 39.6024 485.491 39.5494 485.727 39.4435C485.966 39.3341 486.154 39.1803 486.291 38.982C486.431 38.7838 486.501 38.5463 486.501 38.2694C486.501 37.89 486.366 37.5841 486.096 37.3517C485.829 37.1193 485.45 37.0031 484.958 37.0031H483.271V39.6024ZM492.801 45.8572C492.298 45.8572 491.85 45.77 491.457 45.5957C491.064 45.418 490.753 45.1565 490.524 44.8113C490.299 44.4627 490.186 44.0286 490.186 43.5091C490.186 43.0716 490.266 42.7041 490.427 42.4068C490.587 42.1094 490.806 41.8702 491.083 41.689C491.36 41.5079 491.674 41.3712 492.026 41.2789C492.382 41.1866 492.754 41.1217 493.144 41.0841C493.602 41.0362 493.971 40.9918 494.251 40.9508C494.532 40.9063 494.735 40.8414 494.862 40.7559C494.988 40.6705 495.051 40.544 495.051 40.3765V40.3458C495.051 40.0211 494.949 39.7699 494.744 39.5921C494.542 39.4144 494.255 39.3255 493.882 39.3255C493.489 39.3255 493.177 39.4127 492.944 39.587C492.712 39.7579 492.558 39.9732 492.483 40.233L490.463 40.0689C490.565 39.5904 490.767 39.1769 491.068 38.8282C491.368 38.4762 491.756 38.2062 492.231 38.0182C492.71 37.8268 493.264 37.7311 493.893 37.7311C494.33 37.7311 494.749 37.7823 495.149 37.8849C495.552 37.9874 495.909 38.1464 496.22 38.3617C496.535 38.577 496.782 38.8539 496.964 39.1922C497.145 39.5272 497.235 39.9288 497.235 40.3971V45.7085H495.164V44.6165H495.103C494.976 44.8626 494.807 45.0796 494.595 45.2676C494.383 45.4522 494.128 45.5974 493.831 45.7034C493.534 45.8059 493.19 45.8572 492.801 45.8572ZM493.426 44.3499C493.747 44.3499 494.031 44.2866 494.277 44.1602C494.523 44.0303 494.716 43.856 494.856 43.6372C494.997 43.4185 495.067 43.1707 495.067 42.8938V42.0582C494.998 42.1026 494.904 42.1436 494.785 42.1812C494.668 42.2154 494.537 42.2479 494.39 42.2786C494.243 42.306 494.096 42.3316 493.949 42.3555C493.802 42.376 493.669 42.3948 493.549 42.4119C493.293 42.4495 493.069 42.5093 492.877 42.5914C492.686 42.6734 492.537 42.7845 492.431 42.9246C492.325 43.0613 492.273 43.2322 492.273 43.4373C492.273 43.7346 492.38 43.9619 492.595 44.1192C492.814 44.273 493.091 44.3499 493.426 44.3499ZM505.482 40.0792L503.482 40.2022C503.448 40.0313 503.375 39.8775 503.262 39.7408C503.149 39.6007 503 39.4896 502.816 39.4076C502.635 39.3221 502.418 39.2794 502.165 39.2794C501.826 39.2794 501.541 39.3512 501.309 39.4947C501.076 39.6349 500.96 39.8228 500.96 40.0587C500.96 40.2467 501.035 40.4056 501.186 40.5355C501.336 40.6654 501.594 40.7696 501.96 40.8482L503.385 41.1353C504.151 41.2925 504.721 41.5455 505.097 41.8941C505.473 42.2427 505.661 42.7007 505.661 43.2681C505.661 43.7842 505.509 44.2371 505.205 44.6267C504.904 45.0164 504.491 45.3206 503.964 45.5393C503.441 45.7546 502.838 45.8623 502.155 45.8623C501.112 45.8623 500.282 45.6453 499.663 45.2112C499.048 44.7737 498.687 44.179 498.581 43.427L500.729 43.3142C500.794 43.6321 500.951 43.8748 501.201 44.0423C501.45 44.2063 501.77 44.2884 502.16 44.2884C502.542 44.2884 502.85 44.2149 503.083 44.0679C503.318 43.9175 503.438 43.7244 503.441 43.4886C503.438 43.2903 503.354 43.128 503.19 43.0015C503.026 42.8716 502.773 42.7725 502.431 42.7041L501.068 42.4324C500.299 42.2786 499.726 42.012 499.35 41.6326C498.978 41.2532 498.791 40.7696 498.791 40.1817C498.791 39.6759 498.928 39.2401 499.201 38.8744C499.478 38.5087 499.866 38.2267 500.365 38.0284C500.868 37.8302 501.456 37.7311 502.129 37.7311C503.124 37.7311 503.906 37.9413 504.477 38.3617C505.051 38.7821 505.386 39.3546 505.482 40.0792ZM510.625 45.8623C509.815 45.8623 509.118 45.6982 508.534 45.3701C507.953 45.0386 507.505 44.5703 507.19 43.9654C506.876 43.357 506.719 42.6375 506.719 41.8069C506.719 40.9969 506.876 40.286 507.19 39.6742C507.505 39.0624 507.948 38.5856 508.518 38.2438C509.093 37.902 509.766 37.7311 510.538 37.7311C511.058 37.7311 511.541 37.8148 511.989 37.9823C512.44 38.1464 512.833 38.3942 513.168 38.7257C513.507 39.0572 513.77 39.4742 513.958 39.9766C514.146 40.4757 514.24 41.0601 514.24 41.73V42.3299H507.59V40.9764H512.184C512.184 40.6619 512.116 40.3834 511.979 40.1407C511.842 39.898 511.653 39.7083 511.41 39.5716C511.171 39.4315 510.892 39.3614 510.574 39.3614C510.243 39.3614 509.949 39.4383 509.692 39.5921C509.439 39.7425 509.241 39.9459 509.098 40.2022C508.954 40.4552 508.881 40.7371 508.877 41.0482V42.335C508.877 42.7247 508.949 43.0613 509.093 43.345C509.239 43.6287 509.446 43.8474 509.713 44.0012C509.979 44.1551 510.296 44.232 510.661 44.232C510.904 44.232 511.126 44.1978 511.328 44.1294C511.529 44.0611 511.702 43.9585 511.846 43.8218C511.989 43.6851 512.099 43.5176 512.174 43.3194L514.194 43.4527C514.091 43.938 513.881 44.3618 513.563 44.7241C513.249 45.083 512.842 45.3633 512.343 45.5649C511.847 45.7632 511.275 45.8623 510.625 45.8623ZM518.567 45.8367C517.969 45.8367 517.427 45.6829 516.942 45.3752C516.46 45.0642 516.077 44.6079 515.793 44.0064C515.513 43.4014 515.373 42.6597 515.373 41.7813C515.373 40.879 515.518 40.1287 515.809 39.5306C516.099 38.9291 516.485 38.4796 516.967 38.1822C517.453 37.8815 517.984 37.7311 518.562 37.7311C519.003 37.7311 519.37 37.8063 519.664 37.9567C519.961 38.1036 520.201 38.2882 520.382 38.5104C520.566 38.7291 520.707 38.9444 520.802 39.1563H520.869V35.2087H523.048V45.7085H520.895V44.4473H520.802C520.7 44.666 520.554 44.8831 520.367 45.0984C520.182 45.3103 519.941 45.4863 519.644 45.6265C519.35 45.7666 518.991 45.8367 518.567 45.8367ZM519.259 44.0987C519.611 44.0987 519.909 44.003 520.151 43.8116C520.397 43.6167 520.585 43.345 520.715 42.9964C520.848 42.6478 520.915 42.2393 520.915 41.7711C520.915 41.3028 520.85 40.8961 520.72 40.5509C520.59 40.2056 520.402 39.9391 520.156 39.7511C519.91 39.5631 519.611 39.4691 519.259 39.4691C518.9 39.4691 518.598 39.5665 518.352 39.7613C518.106 39.9561 517.919 40.2262 517.793 40.5714C517.666 40.9166 517.603 41.3165 517.603 41.7711C517.603 42.2291 517.666 42.6341 517.793 42.9861C517.923 43.3348 518.109 43.6082 518.352 43.8064C518.598 44.0012 518.9 44.0987 519.259 44.0987Z" fill="black"/>
<rect x="471.177" y="48.1313" width="10.5367" height="10.5367" rx="2.06247" transform="rotate(45 471.177 48.1313)" fill="#55D680"/>
<g opacity="0.4" filter="url(#filter3_f_1056_12181)">
<ellipse cx="327.51" cy="253.109" rx="99.5604" ry="1.10012" fill="black"/>
</g>
<path d="M244.23 124.395H411.447C414.728 124.395 417.388 127.055 417.388 130.336V245.188C417.388 245.553 417.093 245.848 416.728 245.848H238.949C238.585 245.848 238.289 245.553 238.289 245.188V130.336C238.289 127.055 240.949 124.395 244.23 124.395Z" fill="#E2E8F0" stroke="#CBD5E0" stroke-width="0.440046"/>
<path d="M239.168 130.116C239.168 127.443 241.335 125.275 244.008 125.275H411.666C414.339 125.275 416.507 127.443 416.507 130.116V241.448H239.168V130.116Z" fill="#E2E8F0"/>
<rect x="242.689" y="130.996" width="169.418" height="105.611" fill="white"/>
<path d="M216.508 245.628C216.508 245.385 216.705 245.188 216.948 245.188H437.851C438.094 245.188 438.291 245.385 438.291 245.628V249.148H216.508V245.628Z" fill="#E2E8F0"/>
<path d="M216.508 245.628C216.508 245.385 216.705 245.188 216.948 245.188H437.851C438.094 245.188 438.291 245.385 438.291 245.628V249.148H216.508V245.628Z" fill="url(#paint3_linear_1056_12181)"/>
<path d="M216.508 249.148H438.291V249.148C429.638 252.493 420.441 254.209 411.164 254.209H241.303C232.782 254.209 224.348 252.488 216.508 249.148V249.148Z" fill="#E2E8F0"/>
<path d="M216.508 249.148H438.291V249.148C429.638 252.493 420.441 254.209 411.164 254.209H241.303C232.782 254.209 224.348 252.488 216.508 249.148V249.148Z" fill="url(#paint4_linear_1056_12181)"/>
<path fill-rule="evenodd" clip-rule="evenodd" d="M309.144 245.188C309.257 246.908 310.688 248.268 312.437 248.268H342.58C344.329 248.268 345.76 246.908 345.873 245.188H309.144Z" fill="#E2E8F0"/>
<path fill-rule="evenodd" clip-rule="evenodd" d="M309.144 245.188C309.257 246.908 310.688 248.268 312.437 248.268H342.58C344.329 248.268 345.76 246.908 345.873 245.188H309.144Z" fill="url(#paint5_linear_1056_12181)"/>
<path d="M293.219 172.454C293.219 163.951 293.219 159.7 294.873 156.453C296.329 153.597 298.651 151.274 301.508 149.819C304.755 148.164 309.006 148.164 317.508 148.164H337.135C345.637 148.164 349.888 148.164 353.135 149.819C355.992 151.274 358.314 153.597 359.769 156.453C361.424 159.7 361.424 163.951 361.424 172.454V192.08C361.424 200.582 361.424 204.833 359.769 208.08C358.314 210.937 355.992 213.259 353.135 214.715C349.888 216.369 345.637 216.369 337.135 216.369H317.508C309.006 216.369 304.755 216.369 301.508 214.715C298.651 213.259 296.329 210.937 294.873 208.08C293.219 204.833 293.219 200.582 293.219 192.08V172.454Z" fill="#07503E"/>
<path d="M319.404 198.671C328.227 198.671 332.067 195.81 332.067 191.518C332.067 187.443 328.181 184.712 320.775 184.712H319.404C317.164 184.712 312.899 184.792 312.899 183.491C312.899 182.017 316.387 182.154 318.855 182.154C325.438 182.154 329.964 179.639 329.964 175.521C329.964 173.743 329.233 172.529 327.815 171.576C329.37 171.272 330.878 170.882 332.158 170.362L330.287 165.863C327.224 167.38 323.237 167.835 319.305 167.835C313.042 167.835 308.478 169.971 308.478 174.784C308.478 177.125 309.575 178.642 311.404 179.813C308.752 180.55 306.682 182.104 306.682 184.445C306.682 186.569 308.478 188.006 310.489 188.873C308.066 189.827 306.695 191.301 306.695 193.339C306.695 196.027 310.032 198.671 319.404 198.671ZM319.312 177.385C316.432 177.385 315.061 176.344 315.061 174.74C315.061 173.136 316.432 172.009 319.312 172.009C322.147 172.009 323.427 173.136 323.427 174.74C323.427 176.344 322.147 177.385 319.312 177.385ZM319.358 194.119C315.381 194.119 313.918 193.426 313.918 192.168C313.918 190.911 315.381 190.217 319.358 190.217C323.335 190.217 324.753 190.911 324.753 192.168C324.753 193.426 323.335 194.119 319.358 194.119Z" fill="white"/>
<path d="M341.18 173.057V179.848V191.945H334.434V167.827H335.949C338.838 167.827 341.18 170.169 341.18 173.057Z" fill="white"/>
<path d="M345.166 176.494C346.843 176.306 351.127 175.283 353.278 169.786C351.034 167.663 347.574 167.162 344.758 168.783C342.419 170.128 341.174 172.579 341.174 175.103V176.536L343.972 176.536L343.973 176.536C344.371 176.538 344.769 176.539 345.166 176.494Z" fill="#2FCE65"/>
<path d="M449.341 237.126L414.78 225.15C409.413 223.29 404.264 228.438 406.124 233.806L418.101 268.367C420.103 274.147 428.121 274.554 430.699 269.007L436.468 256.594C436.693 256.109 437.083 255.719 437.569 255.494L449.981 249.725C455.528 247.147 455.121 239.129 449.341 237.126Z" fill="white" stroke="#101010" stroke-width="4.53581"/>
<circle cx="327.292" cy="194.536" r="277.293" stroke="white" stroke-width="1.43058"/>
<g filter="url(#filter4_d_1056_12181)">
<rect x="23.8311" y="110.864" width="61.3538" height="61.3538" rx="16.9842" fill="#9EBE59" shape-rendering="crispEdges"/>
<g clip-path="url(#clip1_1056_12181)">
<path d="M66.2436 130.676C66.219 130.497 66.0623 130.398 65.9328 130.387C65.8035 130.376 63.0678 130.174 63.0678 130.174C63.0678 130.174 61.1679 128.287 60.9594 128.079C60.7507 127.87 60.3432 127.934 60.185 127.98C60.1617 127.987 59.7699 128.108 59.1218 128.308C58.4871 126.482 57.367 124.804 55.3965 124.804C55.3421 124.804 55.2861 124.806 55.2301 124.809C54.6697 124.068 53.9755 123.746 53.3759 123.746C48.7856 123.746 46.5926 129.484 45.905 132.4C44.1213 132.953 42.8542 133.346 42.6923 133.397C41.6967 133.709 41.6652 133.741 41.5345 134.679C41.4361 135.389 38.8311 155.535 38.8311 155.535L59.1302 159.338L70.129 156.959C70.129 156.959 66.2679 130.855 66.2436 130.676ZM57.9999 128.655L56.2822 129.187C56.2828 129.066 56.2834 128.947 56.2834 128.817C56.2834 127.682 56.1259 126.768 55.8731 126.043C56.8885 126.171 57.5647 127.326 57.9999 128.655ZM54.6136 126.268C54.8959 126.976 55.0794 127.991 55.0794 129.361C55.0794 129.431 55.0788 129.495 55.0782 129.56C53.9612 129.906 52.7473 130.281 51.5308 130.658C52.2139 128.022 53.4942 126.749 54.6136 126.268ZM53.2498 124.977C53.4479 124.977 53.6475 125.045 53.8385 125.176C52.3674 125.868 50.7905 127.612 50.1246 131.093L47.3206 131.962C48.1006 129.306 49.9527 124.977 53.2498 124.977Z" fill="white"/>
<path d="M65.9324 130.391C65.8032 130.381 63.0675 130.178 63.0675 130.178C63.0675 130.178 61.1675 128.292 60.959 128.083C60.881 128.005 60.7757 127.965 60.6657 127.948L59.1309 159.342L70.1287 156.963C70.1287 156.963 66.2675 130.859 66.2433 130.68C66.2186 130.501 66.0619 130.402 65.9324 130.391Z" fill="white"/>
<path d="M55.4004 136.469L54.0442 140.503C54.0442 140.503 52.856 139.868 51.3995 139.868C49.2642 139.868 49.1567 141.209 49.1567 141.546C49.1567 143.389 53.9596 144.095 53.9596 148.41C53.9596 151.806 51.806 153.992 48.9022 153.992C45.4177 153.992 43.6357 151.824 43.6357 151.824L44.5687 148.741C44.5687 148.741 46.4004 150.313 47.9461 150.313C48.956 150.313 49.3668 149.518 49.3668 148.937C49.3668 146.534 45.4265 146.427 45.4265 142.477C45.4265 139.154 47.8123 135.937 52.6281 135.937C54.4837 135.937 55.4004 136.469 55.4004 136.469" fill="#9EBE59"/>
</g>
</g>
<g filter="url(#filter5_d_1056_12181)">
<rect x="497.333" y="360.566" width="61.3538" height="61.3538" rx="16.9842" fill="#635BFF" shape-rendering="crispEdges"/>
</g>
<g filter="url(#filter6_d_1056_12181)">
<rect x="555.01" y="257.646" width="61.3538" height="61.3538" rx="16.9842" fill="#8ADDFF" shape-rendering="crispEdges"/>
<mask id="mask0_1056_12181" style="mask-type:alpha" maskUnits="userSpaceOnUse" x="565" y="274" width="41" height="29">
<path d="M565.834 274.509H605.538V302.138H565.834V274.509Z" fill="#00A1E0"/>
</mask>
<g mask="url(#mask0_1056_12181)">
<path fill-rule="evenodd" clip-rule="evenodd" d="M582.32 277.533C583.601 276.204 585.385 275.381 587.356 275.381C589.983 275.381 592.26 276.835 593.486 279.002C594.575 278.517 595.754 278.267 596.946 278.268C601.675 278.268 605.514 282.121 605.514 286.876C605.514 291.631 601.675 295.485 596.946 295.485C596.368 295.485 595.804 295.427 595.253 295.317C594.18 297.222 592.129 298.516 589.793 298.516C588.843 298.518 587.904 298.303 587.049 297.888C585.962 300.433 583.429 302.222 580.48 302.222C577.401 302.222 574.788 300.288 573.78 297.568C573.332 297.663 572.875 297.71 572.417 297.71C568.753 297.71 565.79 294.714 565.79 291.035C565.79 288.563 567.124 286.411 569.104 285.248C568.684 284.284 568.467 283.245 568.469 282.194C568.469 277.948 571.928 274.516 576.19 274.516C578.687 274.516 580.92 275.701 582.321 277.541" fill="#00A1E0"/>
</g>
<path fill-rule="evenodd" clip-rule="evenodd" d="M571.576 288.876C571.551 288.941 571.585 288.954 571.593 288.966C571.668 289.019 571.744 289.058 571.82 289.102C572.225 289.316 572.608 289.378 573.008 289.378C573.822 289.378 574.329 288.947 574.329 288.251V288.238C574.329 287.595 573.757 287.361 573.222 287.194L573.152 287.171C572.748 287.041 572.399 286.927 572.399 286.662V286.649C572.399 286.422 572.604 286.255 572.919 286.255C573.269 286.255 573.687 286.371 573.954 286.518C573.954 286.518 574.033 286.569 574.062 286.493C574.077 286.452 574.214 286.088 574.228 286.048C574.244 286.005 574.216 285.973 574.189 285.956C573.882 285.77 573.459 285.644 573.021 285.644L572.939 285.644C572.194 285.644 571.672 286.093 571.672 286.736V286.75C571.672 287.428 572.248 287.649 572.785 287.801L572.871 287.828C573.262 287.948 573.601 288.052 573.601 288.325V288.339C573.601 288.591 573.381 288.778 573.027 288.778C572.89 288.778 572.452 288.776 571.978 288.477C571.92 288.444 571.888 288.42 571.844 288.393C571.82 288.379 571.762 288.353 571.736 288.43L571.576 288.875M583.502 288.875C583.477 288.939 583.511 288.953 583.519 288.964C583.593 289.018 583.669 289.057 583.745 289.101C584.151 289.315 584.533 289.377 584.933 289.377C585.748 289.377 586.254 288.945 586.254 288.25V288.237C586.254 287.594 585.684 287.36 585.148 287.193L585.078 287.17C584.674 287.039 584.325 286.926 584.325 286.661V286.648C584.325 286.421 584.529 286.253 584.844 286.253C585.195 286.253 585.611 286.37 585.879 286.517C585.879 286.517 585.958 286.568 585.987 286.492C586.003 286.45 586.139 286.087 586.152 286.047C586.168 286.004 586.141 285.972 586.113 285.955C585.806 285.769 585.383 285.643 584.945 285.643L584.864 285.643C584.118 285.643 583.597 286.092 583.597 286.735V286.749C583.597 287.426 584.172 287.647 584.709 287.8L584.795 287.827C585.188 287.947 585.525 288.051 585.525 288.324V288.338C585.525 288.589 585.305 288.777 584.951 288.777C584.814 288.777 584.375 288.775 583.902 288.476C583.844 288.443 583.811 288.42 583.767 288.392C583.753 288.382 583.684 288.356 583.66 288.428L583.5 288.873M591.645 287.512C591.645 287.905 591.571 288.215 591.427 288.434C591.284 288.651 591.067 288.757 590.765 288.757C590.463 288.757 590.247 288.652 590.105 288.436C589.962 288.218 589.89 287.906 589.89 287.514C589.89 287.121 589.963 286.813 590.105 286.596C590.246 286.381 590.461 286.278 590.765 286.278C591.068 286.278 591.284 286.382 591.427 286.596C591.572 286.813 591.645 287.121 591.645 287.514M592.325 286.785C592.258 286.56 592.154 286.362 592.016 286.196C591.877 286.031 591.702 285.897 591.493 285.801C591.286 285.704 591.041 285.655 590.763 285.655C590.486 285.655 590.242 285.704 590.033 285.801C589.826 285.897 589.65 286.031 589.511 286.196C589.373 286.362 589.269 286.56 589.201 286.785C589.135 287.009 589.101 287.253 589.101 287.514C589.101 287.774 589.135 288.018 589.201 288.242C589.268 288.468 589.372 288.665 589.511 288.831C589.65 288.997 589.826 289.129 590.033 289.224C590.242 289.318 590.487 289.366 590.763 289.366C591.039 289.366 591.284 289.318 591.492 289.224C591.699 289.13 591.876 288.997 592.014 288.831C592.153 288.665 592.257 288.468 592.324 288.242C592.39 288.018 592.424 287.774 592.424 287.514C592.424 287.255 592.39 287.009 592.324 286.785M597.914 288.647C597.892 288.581 597.828 288.606 597.828 288.606C597.729 288.643 597.623 288.678 597.511 288.696C597.398 288.713 597.271 288.722 597.139 288.722C596.81 288.722 596.547 288.625 596.361 288.431C596.172 288.238 596.067 287.927 596.069 287.505C596.07 287.121 596.163 286.833 596.33 286.612C596.495 286.394 596.749 286.281 597.085 286.281C597.365 286.281 597.579 286.313 597.804 286.383C597.804 286.383 597.857 286.406 597.883 286.336C597.943 286.172 597.987 286.054 598.051 285.874C598.069 285.822 598.025 285.8 598.008 285.794C597.92 285.76 597.712 285.704 597.554 285.68C597.407 285.658 597.236 285.646 597.044 285.646C596.757 285.646 596.503 285.695 596.286 285.791C596.068 285.888 595.885 286.021 595.739 286.187C595.593 286.352 595.482 286.55 595.407 286.776C595.334 287 595.296 287.245 595.296 287.506C595.296 288.067 595.448 288.522 595.749 288.855C596.05 289.19 596.502 289.358 597.092 289.358C597.441 289.358 597.798 289.288 598.055 289.187C598.055 289.187 598.104 289.163 598.083 289.106L597.915 288.647M599.105 287.134C599.137 286.916 599.197 286.734 599.292 286.593C599.433 286.378 599.648 286.26 599.95 286.26C600.252 286.26 600.452 286.379 600.595 286.593C600.69 286.735 600.731 286.923 600.747 287.134L599.097 287.134L599.105 287.134ZM601.396 286.654C601.338 286.438 601.195 286.218 601.102 286.118C600.953 285.959 600.808 285.847 600.664 285.786C600.455 285.698 600.231 285.653 600.004 285.653C599.716 285.653 599.455 285.701 599.243 285.8C599.032 285.899 598.854 286.034 598.713 286.203C598.573 286.371 598.468 286.57 598.401 286.799C598.334 287.024 598.3 287.271 598.3 287.53C598.3 287.795 598.335 288.041 598.404 288.263C598.474 288.487 598.587 288.683 598.739 288.846C598.891 289.011 599.085 289.138 599.318 289.229C599.55 289.318 599.832 289.364 600.155 289.363C600.82 289.361 601.171 289.214 601.314 289.134C601.339 289.119 601.363 289.095 601.333 289.024L601.183 288.604C601.16 288.541 601.096 288.564 601.096 288.564C600.931 288.625 600.698 288.735 600.15 288.734C599.793 288.733 599.528 288.628 599.362 288.463C599.193 288.295 599.108 288.049 599.095 287.7L601.401 287.702C601.401 287.702 601.462 287.701 601.468 287.642C601.471 287.618 601.547 287.171 601.399 286.655L601.396 286.654ZM580.669 287.134C580.701 286.916 580.761 286.734 580.855 286.593C580.997 286.378 581.212 286.26 581.514 286.26C581.816 286.26 582.016 286.379 582.159 286.593C582.254 286.735 582.295 286.923 582.311 287.134L580.661 287.134L580.669 287.134ZM582.96 286.654C582.903 286.438 582.759 286.218 582.665 286.118C582.517 285.959 582.372 285.847 582.228 285.786C582.019 285.698 581.794 285.653 581.568 285.653C581.28 285.653 581.019 285.701 580.807 285.8C580.596 285.899 580.418 286.034 580.277 286.203C580.138 286.371 580.032 286.57 579.965 286.799C579.898 287.024 579.864 287.271 579.864 287.53C579.864 287.795 579.899 288.041 579.969 288.263C580.039 288.487 580.151 288.683 580.302 288.846C580.453 289.011 580.648 289.138 580.881 289.229C581.113 289.318 581.393 289.364 581.718 289.363C582.383 289.361 582.734 289.214 582.877 289.134C582.902 289.119 582.926 289.095 582.896 289.024L582.746 288.604C582.722 288.541 582.659 288.564 582.659 288.564C582.494 288.625 582.26 288.735 581.713 288.734C581.357 288.733 581.091 288.628 580.925 288.463C580.755 288.295 580.671 288.049 580.658 287.7L582.964 287.702C582.964 287.702 583.025 287.701 583.031 287.642C583.033 287.618 583.11 287.171 582.962 286.655L582.96 286.654ZM575.691 288.632C575.601 288.56 575.588 288.543 575.558 288.496C575.513 288.426 575.489 288.326 575.489 288.198C575.489 287.997 575.556 287.852 575.695 287.754C575.694 287.755 575.893 287.583 576.364 287.589C576.573 287.592 576.781 287.61 576.988 287.642V288.684H576.989C576.989 288.684 576.697 288.747 576.367 288.767C575.898 288.795 575.691 288.632 575.692 288.633L575.691 288.632ZM576.608 287.018C576.514 287.011 576.393 287.008 576.249 287.008C576.052 287.008 575.86 287.032 575.682 287.08C575.503 287.128 575.341 287.203 575.202 287.303C575.063 287.401 574.949 287.531 574.868 287.681C574.786 287.832 574.745 288.009 574.745 288.21C574.745 288.414 574.78 288.59 574.85 288.734C574.919 288.876 575.022 289 575.151 289.093C575.279 289.185 575.437 289.254 575.619 289.295C575.8 289.336 576.005 289.357 576.23 289.357C576.466 289.357 576.701 289.337 576.929 289.299C577.123 289.265 577.316 289.228 577.508 289.186C577.585 289.169 577.67 289.146 577.67 289.146C577.727 289.131 577.723 289.071 577.723 289.071L577.721 286.977C577.721 286.517 577.598 286.176 577.355 285.965C577.113 285.754 576.758 285.648 576.298 285.648C576.126 285.648 575.847 285.671 575.681 285.704C575.681 285.704 575.179 285.801 574.971 285.963C574.971 285.963 574.926 285.991 574.951 286.054L575.114 286.49C575.134 286.547 575.19 286.528 575.19 286.528C575.19 286.528 575.207 286.521 575.228 286.509C575.67 286.269 576.23 286.276 576.23 286.276C576.479 286.276 576.671 286.326 576.8 286.424C576.925 286.521 576.989 286.666 576.989 286.971V287.068C576.792 287.04 576.61 287.023 576.61 287.023L576.608 287.018ZM595.146 285.836C595.149 285.828 595.151 285.82 595.151 285.811C595.151 285.803 595.149 285.795 595.146 285.787C595.143 285.779 595.138 285.772 595.132 285.767C595.126 285.761 595.119 285.756 595.111 285.753C595.072 285.738 594.876 285.697 594.726 285.688C594.437 285.67 594.276 285.718 594.132 285.783C593.989 285.847 593.831 285.95 593.744 286.069L593.743 285.79C593.743 285.752 593.716 285.721 593.677 285.721H593.087C593.049 285.721 593.021 285.752 593.021 285.79V289.207C593.022 289.226 593.029 289.244 593.042 289.257C593.055 289.27 593.073 289.277 593.091 289.277H593.696C593.714 289.277 593.732 289.27 593.745 289.257C593.758 289.244 593.766 289.226 593.766 289.207V287.492C593.766 287.262 593.791 287.033 593.842 286.89C593.891 286.747 593.959 286.634 594.043 286.552C594.123 286.473 594.22 286.415 594.328 286.382C594.428 286.353 594.532 286.339 594.637 286.339C594.758 286.339 594.89 286.37 594.89 286.37C594.934 286.374 594.959 286.347 594.974 286.308C595.013 286.203 595.126 285.889 595.147 285.826" fill="#FFFFFE"/>
<path fill-rule="evenodd" clip-rule="evenodd" d="M589.501 284.258C589.427 284.236 589.351 284.218 589.274 284.204C589.171 284.187 589.066 284.179 588.961 284.18C588.545 284.18 588.216 284.297 587.986 284.529C587.757 284.759 587.601 285.109 587.523 285.569L587.495 285.725H586.972C586.972 285.725 586.908 285.722 586.895 285.791L586.809 286.268C586.803 286.314 586.823 286.343 586.884 286.342H587.393L586.877 289.213C586.836 289.444 586.79 289.635 586.739 289.779C586.688 289.921 586.639 290.028 586.578 290.105C586.519 290.18 586.464 290.235 586.367 290.267C586.288 290.294 586.197 290.306 586.096 290.306C586.041 290.306 585.967 290.297 585.912 290.286C585.857 290.275 585.829 290.263 585.788 290.246C585.788 290.246 585.728 290.223 585.704 290.282C585.685 290.331 585.55 290.703 585.534 290.749C585.517 290.794 585.54 290.83 585.569 290.84C585.637 290.864 585.687 290.88 585.779 290.901C585.908 290.931 586.016 290.933 586.117 290.933C586.329 290.933 586.522 290.904 586.682 290.846C586.843 290.788 586.983 290.687 587.107 290.55C587.242 290.403 587.326 290.248 587.407 290.037C587.487 289.828 587.555 289.569 587.609 289.266L588.128 286.342H588.886C588.886 286.342 588.95 286.345 588.963 286.276L589.049 285.799C589.055 285.753 589.036 285.724 588.974 285.725H588.238C588.242 285.708 588.275 285.45 588.36 285.207C588.396 285.104 588.463 285.02 588.521 284.963C588.575 284.908 588.641 284.867 588.714 284.843C588.794 284.818 588.877 284.806 588.961 284.808C589.03 284.808 589.098 284.816 589.15 284.827C589.222 284.842 589.249 284.85 589.268 284.855C589.343 284.878 589.353 284.856 589.368 284.82L589.544 284.338C589.562 284.286 589.518 284.265 589.501 284.258M579.214 289.219C579.214 289.258 579.187 289.289 579.148 289.289H578.538C578.499 289.289 578.472 289.258 578.472 289.219V284.324C578.472 284.285 578.499 284.254 578.538 284.254H579.148C579.187 284.254 579.214 284.285 579.214 284.324V289.219" fill="#FFFFFE"/>
</g>
<g filter="url(#filter7_d_1056_12181)">
<rect x="34.5381" y="259.028" width="61.3538" height="61.3538" rx="16.9842" fill="#4670CE" shape-rendering="crispEdges"/>
<path fill-rule="evenodd" clip-rule="evenodd" d="M65.4554 300.714H42.9277V278.695H87.5026L65.4554 300.714ZM64.993 282.832L69.3808 282.835L69.3805 282.835C73.5736 282.835 75.543 284.328 75.543 287.581C75.543 290.501 73.5162 292.244 70.0891 292.244H68.6717V296.45H62.1714L61.5266 294.439C60.839 294.663 60.0633 294.79 59.2398 294.79C58.3936 294.79 57.5969 294.658 56.8968 294.419L56.2278 296.45H52.242L52.6822 295.277C52.6756 295.282 52.6691 295.288 52.6625 295.294C52.6167 295.335 52.5712 295.375 52.5214 295.414C51.5287 296.213 50.2858 296.651 48.7458 296.679L48.5182 296.681C46.7492 296.681 45.0154 296.194 43.5512 295.362L44.9062 292.674C46.3745 293.54 47.2964 293.735 48.5392 293.709C49.1834 293.696 49.65 293.579 49.9534 293.266C50.1365 293.074 50.2332 292.836 50.2421 292.582C50.2537 291.883 49.2596 291.556 48.0414 291.179C47.054 290.873 45.9337 290.458 45.0577 289.816C44.0204 289.056 43.5266 288.102 43.5512 286.757C43.5663 285.78 43.9285 284.897 44.601 284.202C45.5657 283.206 47.1222 282.602 48.9897 282.602H48.999C50.6005 282.603 52.5549 283.058 53.9696 283.776L52.4453 286.427C50.8956 285.68 50.117 285.609 49.2339 285.563C47.9203 285.492 47.2573 285.962 47.2475 286.468C47.2359 287.084 48.4902 287.641 49.6724 288.021C51.4627 288.589 53.7384 289.348 54.0869 291.545L57.3596 282.832H61.1601L64.993 293.25V282.832ZM57.8342 291.504C58.2481 291.66 58.728 291.749 59.24 291.749H59.2401C59.7382 291.749 60.207 291.662 60.6179 291.516L59.2513 287.122H59.2249L57.8342 291.504ZM68.6719 289.232H69.6383C70.9275 289.232 71.9555 288.803 71.9555 287.443C71.9555 286.129 70.9275 285.701 69.6383 285.701H68.6719V289.232Z" fill="white"/>
</g>
<g filter="url(#filter8_d_1056_12181)">
<rect x="85.3066" y="-7.25293" width="61.3538" height="61.3538" rx="16.9842" fill="#123239" shape-rendering="crispEdges"/>
<path d="M126.616 22.0832H129.234C129.588 22.0842 129.939 22.0154 130.266 21.8807C130.593 21.746 130.891 21.548 131.141 21.2982C131.392 21.0483 131.591 20.7514 131.727 20.4245C131.862 20.0976 131.932 19.7472 131.932 19.3933V8.78516H113.326C112.621 8.78516 111.945 9.0652 111.446 9.56367C110.948 10.0621 110.668 10.7382 110.668 11.4432C110.668 12.1481 110.948 12.8242 111.446 13.3227C111.945 13.8211 112.621 14.1012 113.326 14.1012H125.299C125.474 14.1012 125.647 14.1357 125.808 14.2028C125.969 14.2699 126.116 14.3682 126.239 14.4921C126.362 14.616 126.459 14.763 126.525 14.9247C126.592 15.0863 126.625 15.2595 126.624 15.4342L126.616 22.0832Z" fill="white"/>
<path d="M121.301 30.0728H123.919C124.273 30.0728 124.624 30.003 124.951 29.8674C125.278 29.7318 125.576 29.5331 125.826 29.2826C126.077 29.0321 126.276 28.7347 126.411 28.4073C126.547 28.08 126.617 27.7292 126.617 27.3749V15.4019C126.618 15.5765 126.584 15.7497 126.518 15.9114C126.452 16.073 126.355 16.2201 126.231 16.3439C126.108 16.4678 125.962 16.5661 125.801 16.6332C125.639 16.7003 125.466 16.7349 125.292 16.7349H108.019C107.314 16.7349 106.638 17.0149 106.139 17.5134C105.641 18.0118 105.361 18.6879 105.361 19.3929C105.361 20.0978 105.641 20.7739 106.139 21.2724C106.638 21.7708 107.314 22.0509 108.019 22.0509H119.992C120.166 22.0509 120.339 22.0854 120.5 22.1525C120.662 22.2196 120.808 22.3179 120.931 22.4418C121.054 22.5657 121.152 22.7127 121.218 22.8744C121.284 23.036 121.318 23.2092 121.317 23.3839C121.318 23.5585 121.284 23.7317 121.218 23.8934C121.152 24.0551 121.054 24.2021 120.931 24.326C120.808 24.4498 120.662 24.5482 120.5 24.6152C120.339 24.6823 120.166 24.7169 119.992 24.7169H105.353V30.0409L121.301 30.0728Z" fill="white"/>
<path d="M121.3 23.416V35.389C121.3 36.0982 121.019 36.7784 120.517 37.2798C120.016 37.7813 119.335 38.063 118.626 38.063H100.036V27.415C100.035 27.0646 100.103 26.7175 100.237 26.3935C100.371 26.0696 100.567 25.7753 100.815 25.5275C101.062 25.2797 101.357 25.0834 101.681 24.9498C102.005 24.8162 102.352 24.748 102.702 24.749H119.975C120.15 24.749 120.323 24.7145 120.484 24.6474C120.645 24.5803 120.792 24.482 120.915 24.3581C121.038 24.2342 121.136 24.0872 121.202 23.9255C121.268 23.7638 121.301 23.5907 121.3 23.416Z" fill="white"/>
</g>
<g filter="url(#filter9_d_1056_12181)">
<rect x="120.765" y="395.821" width="60.1183" height="60.1183" rx="16.6422" fill="#2CA01C" shape-rendering="crispEdges"/>
</g>
<g filter="url(#filter10_d_1056_12181)">
<rect x="562.608" y="92.5596" width="61.3538" height="61.3538" rx="16.9842" fill="#F19F39" shape-rendering="crispEdges"/>
<g clip-path="url(#clip2_1056_12181)">
<path d="M584.264 119.871C584.264 120.378 584.318 120.788 584.414 121.089C584.524 121.39 584.66 121.718 584.852 122.074C584.92 122.183 584.948 122.293 584.948 122.389C584.948 122.525 584.866 122.662 584.688 122.799L583.826 123.373C583.703 123.456 583.58 123.497 583.47 123.497C583.333 123.497 583.197 123.428 583.06 123.305C582.868 123.1 582.704 122.881 582.567 122.662C582.43 122.43 582.294 122.17 582.143 121.855C581.076 123.114 579.736 123.743 578.121 123.743C576.972 123.743 576.056 123.415 575.385 122.758C574.715 122.101 574.373 121.226 574.373 120.131C574.373 118.969 574.783 118.025 575.618 117.313C576.452 116.602 577.56 116.246 578.969 116.246C579.435 116.246 579.913 116.287 580.42 116.356C580.926 116.424 581.446 116.534 581.993 116.657V115.658C581.993 114.618 581.774 113.893 581.35 113.469C580.912 113.045 580.173 112.84 579.12 112.84C578.641 112.84 578.149 112.895 577.643 113.018C577.136 113.141 576.644 113.291 576.165 113.483C575.946 113.579 575.782 113.633 575.686 113.661C575.591 113.688 575.522 113.702 575.467 113.702C575.276 113.702 575.18 113.565 575.18 113.278V112.607C575.18 112.389 575.208 112.224 575.276 112.129C575.344 112.033 575.467 111.937 575.659 111.841C576.138 111.595 576.712 111.39 577.383 111.226C578.053 111.048 578.764 110.966 579.517 110.966C581.145 110.966 582.335 111.335 583.101 112.074C583.853 112.813 584.236 113.934 584.236 115.439V119.871H584.264ZM578.71 121.951C579.161 121.951 579.626 121.869 580.119 121.705C580.611 121.54 581.049 121.239 581.418 120.829C581.637 120.569 581.801 120.282 581.883 119.954C581.965 119.625 582.02 119.228 582.02 118.763V118.189C581.623 118.093 581.199 118.011 580.762 117.956C580.324 117.902 579.9 117.874 579.476 117.874C578.559 117.874 577.889 118.052 577.437 118.421C576.986 118.791 576.767 119.311 576.767 119.995C576.767 120.638 576.931 121.116 577.273 121.445C577.601 121.787 578.08 121.951 578.71 121.951V121.951ZM589.694 123.428C589.448 123.428 589.284 123.387 589.175 123.291C589.065 123.209 588.969 123.018 588.887 122.758L585.673 112.183C585.591 111.91 585.549 111.732 585.549 111.636C585.549 111.417 585.659 111.294 585.878 111.294H587.218C587.478 111.294 587.656 111.335 587.752 111.431C587.861 111.513 587.943 111.705 588.026 111.964L590.324 121.021L592.458 111.964C592.526 111.691 592.608 111.513 592.718 111.431C592.827 111.349 593.019 111.294 593.265 111.294H594.359C594.619 111.294 594.797 111.335 594.907 111.431C595.016 111.513 595.112 111.705 595.166 111.964L597.328 121.13L599.694 111.964C599.777 111.691 599.872 111.513 599.968 111.431C600.078 111.349 600.255 111.294 600.502 111.294H601.774C601.993 111.294 602.116 111.404 602.116 111.636C602.116 111.705 602.102 111.773 602.088 111.855C602.075 111.937 602.047 112.047 601.993 112.197L598.696 122.772C598.614 123.045 598.518 123.223 598.409 123.305C598.299 123.387 598.121 123.442 597.889 123.442H596.712C596.452 123.442 596.275 123.401 596.165 123.305C596.056 123.209 595.96 123.031 595.905 122.758L593.785 113.934L591.678 122.744C591.61 123.018 591.528 123.196 591.418 123.291C591.309 123.387 591.117 123.428 590.871 123.428H589.694ZM607.273 123.798C606.562 123.798 605.85 123.715 605.166 123.551C604.482 123.387 603.949 123.209 603.593 123.004C603.374 122.881 603.224 122.744 603.169 122.621C603.114 122.498 603.087 122.361 603.087 122.238V121.54C603.087 121.253 603.197 121.116 603.402 121.116C603.484 121.116 603.566 121.13 603.648 121.157C603.73 121.185 603.853 121.239 603.99 121.294C604.455 121.499 604.961 121.663 605.495 121.773C606.042 121.882 606.575 121.937 607.123 121.937C607.984 121.937 608.655 121.787 609.12 121.486C609.585 121.185 609.831 120.747 609.831 120.186C609.831 119.803 609.708 119.488 609.462 119.228C609.216 118.969 608.751 118.736 608.08 118.517L606.097 117.902C605.098 117.587 604.359 117.122 603.908 116.506C603.456 115.904 603.224 115.234 603.224 114.523C603.224 113.948 603.347 113.442 603.593 113.004C603.839 112.566 604.168 112.183 604.578 111.882C604.989 111.568 605.454 111.335 606.001 111.171C606.548 111.007 607.123 110.938 607.725 110.938C608.026 110.938 608.34 110.952 608.641 110.993C608.956 111.034 609.243 111.089 609.53 111.144C609.804 111.212 610.064 111.28 610.31 111.363C610.556 111.445 610.748 111.527 610.885 111.609C611.076 111.718 611.213 111.828 611.295 111.951C611.377 112.06 611.418 112.211 611.418 112.402V113.045C611.418 113.332 611.309 113.483 611.103 113.483C610.994 113.483 610.816 113.428 610.584 113.319C609.804 112.963 608.928 112.785 607.957 112.785C607.177 112.785 606.562 112.908 606.138 113.168C605.714 113.428 605.495 113.825 605.495 114.386C605.495 114.769 605.632 115.097 605.905 115.357C606.179 115.617 606.685 115.877 607.41 116.109L609.352 116.725C610.337 117.04 611.049 117.477 611.473 118.038C611.897 118.599 612.102 119.242 612.102 119.954C612.102 120.542 611.979 121.075 611.746 121.54C611.5 122.005 611.172 122.416 610.748 122.744C610.324 123.086 609.818 123.332 609.229 123.51C608.614 123.702 607.971 123.798 607.273 123.798V123.798Z" fill="white"/>
<path fill-rule="evenodd" clip-rule="evenodd" d="M609.862 130.447C605.361 133.771 598.822 135.536 593.2 135.536C585.32 135.536 578.221 132.622 572.858 127.78C572.434 127.397 572.817 126.877 573.323 127.178C579.123 130.543 586.278 132.581 593.679 132.581C598.672 132.581 604.158 131.542 609.205 129.408C609.958 129.066 610.601 129.9 609.862 130.447V130.447Z" fill="white"/>
<path fill-rule="evenodd" clip-rule="evenodd" d="M611.74 128.314C611.166 127.576 607.937 127.959 606.474 128.136C606.036 128.191 605.968 127.808 606.364 127.521C608.936 125.715 613.163 126.235 613.656 126.837C614.148 127.452 613.519 131.68 611.111 133.704C610.742 134.019 610.386 133.855 610.55 133.444C611.098 132.09 612.315 129.039 611.74 128.314V128.314Z" fill="white"/>
</g>
</g>
<rect x="-40.0635" y="-24.8667" width="758.433" height="412.027" fill="#101010" fill-opacity="0.2"/>
</g>
<defs>
<filter id="filter0_f_1056_12181" x="246.924" y="227.709" width="169.445" height="16.7229" filterUnits="userSpaceOnUse" color-interpolation-filters="sRGB">
<feFlood flood-opacity="0" result="BackgroundImageFix"/>
<feBlend mode="normal" in="SourceGraphic" in2="BackgroundImageFix" result="shape"/>
<feGaussianBlur stdDeviation="3.75408" result="effect1_foregroundBlur_1056_12181"/>
</filter>
<filter id="filter1_d_1056_12181" x="109.207" y="208.817" width="148.962" height="148.962" filterUnits="userSpaceOnUse" color-interpolation-filters="sRGB">
<feFlood flood-opacity="0" result="BackgroundImageFix"/>
<feColorMatrix in="SourceAlpha" type="matrix" values="0 0 0 0 0 0 0 0 0 0 0 0 0 0 0 0 0 0 127 0" result="hardAlpha"/>
<feOffset dy="3.46423"/>
<feGaussianBlur stdDeviation="23.3835"/>
<feComposite in2="hardAlpha" operator="out"/>
<feColorMatrix type="matrix" values="0 0 0 0 0 0 0 0 0 0 0 0 0 0 0 0 0 0 0.08 0"/>
<feBlend mode="normal" in2="BackgroundImageFix" result="effect1_dropShadow_1056_12181"/>
<feBlend mode="normal" in="SourceGraphic" in2="effect1_dropShadow_1056_12181" result="shape"/>
</filter>
<filter id="filter2_d_1056_12181" x="394.975" y="24.5302" width="148.962" height="148.962" filterUnits="userSpaceOnUse" color-interpolation-filters="sRGB">
<feFlood flood-opacity="0" result="BackgroundImageFix"/>
<feColorMatrix in="SourceAlpha" type="matrix" values="0 0 0 0 0 0 0 0 0 0 0 0 0 0 0 0 0 0 127 0" result="hardAlpha"/>
<feOffset dy="3.46423"/>
<feGaussianBlur stdDeviation="23.3835"/>
<feComposite in2="hardAlpha" operator="out"/>
<feColorMatrix type="matrix" values="0 0 0 0 0 0 0 0 0 0 0 0 0 0 0 0 0 0 0.08 0"/>
<feBlend mode="normal" in2="BackgroundImageFix" result="effect1_dropShadow_1056_12181"/>
<feBlend mode="normal" in="SourceGraphic" in2="effect1_dropShadow_1056_12181" result="shape"/>
</filter>
<filter id="filter3_f_1056_12181" x="218.268" y="242.328" width="218.483" height="21.5622" filterUnits="userSpaceOnUse" color-interpolation-filters="sRGB">
<feFlood flood-opacity="0" result="BackgroundImageFix"/>
<feBlend mode="normal" in="SourceGraphic" in2="BackgroundImageFix" result="shape"/>
<feGaussianBlur stdDeviation="4.84051" result="effect1_foregroundBlur_1056_12181"/>
</filter>
<filter id="filter4_d_1056_12181" x="-27.9362" y="62.9311" width="164.888" height="164.889" filterUnits="userSpaceOnUse" color-interpolation-filters="sRGB">
<feFlood flood-opacity="0" result="BackgroundImageFix"/>
<feColorMatrix in="SourceAlpha" type="matrix" values="0 0 0 0 0 0 0 0 0 0 0 0 0 0 0 0 0 0 127 0" result="hardAlpha"/>
<feOffset dy="3.83461"/>
<feGaussianBlur stdDeviation="25.8836"/>
<feComposite in2="hardAlpha" operator="out"/>
<feColorMatrix type="matrix" values="0 0 0 0 0 0 0 0 0 0 0 0 0 0 0 0 0 0 0.08 0"/>
<feBlend mode="normal" in2="BackgroundImageFix" result="effect1_dropShadow_1056_12181"/>
<feBlend mode="normal" in="SourceGraphic" in2="effect1_dropShadow_1056_12181" result="shape"/>
</filter>
<filter id="filter5_d_1056_12181" x="445.566" y="312.634" width="164.888" height="164.889" filterUnits="userSpaceOnUse" color-interpolation-filters="sRGB">
<feFlood flood-opacity="0" result="BackgroundImageFix"/>
<feColorMatrix in="SourceAlpha" type="matrix" values="0 0 0 0 0 0 0 0 0 0 0 0 0 0 0 0 0 0 127 0" result="hardAlpha"/>
<feOffset dy="3.83461"/>
<feGaussianBlur stdDeviation="25.8836"/>
<feComposite in2="hardAlpha" operator="out"/>
<feColorMatrix type="matrix" values="0 0 0 0 0 0 0 0 0 0 0 0 0 0 0 0 0 0 0.08 0"/>
<feBlend mode="normal" in2="BackgroundImageFix" result="effect1_dropShadow_1056_12181"/>
<feBlend mode="normal" in="SourceGraphic" in2="effect1_dropShadow_1056_12181" result="shape"/>
</filter>
<filter id="filter6_d_1056_12181" x="503.242" y="209.713" width="164.888" height="164.889" filterUnits="userSpaceOnUse" color-interpolation-filters="sRGB">
<feFlood flood-opacity="0" result="BackgroundImageFix"/>
<feColorMatrix in="SourceAlpha" type="matrix" values="0 0 0 0 0 0 0 0 0 0 0 0 0 0 0 0 0 0 127 0" result="hardAlpha"/>
<feOffset dy="3.83461"/>
<feGaussianBlur stdDeviation="25.8836"/>
<feComposite in2="hardAlpha" operator="out"/>
<feColorMatrix type="matrix" values="0 0 0 0 0 0 0 0 0 0 0 0 0 0 0 0 0 0 0.08 0"/>
<feBlend mode="normal" in2="BackgroundImageFix" result="effect1_dropShadow_1056_12181"/>
<feBlend mode="normal" in="SourceGraphic" in2="effect1_dropShadow_1056_12181" result="shape"/>
</filter>
<filter id="filter7_d_1056_12181" x="-17.2292" y="211.095" width="164.888" height="164.889" filterUnits="userSpaceOnUse" color-interpolation-filters="sRGB">
<feFlood flood-opacity="0" result="BackgroundImageFix"/>
<feColorMatrix in="SourceAlpha" type="matrix" values="0 0 0 0 0 0 0 0 0 0 0 0 0 0 0 0 0 0 127 0" result="hardAlpha"/>
<feOffset dy="3.83461"/>
<feGaussianBlur stdDeviation="25.8836"/>
<feComposite in2="hardAlpha" operator="out"/>
<feColorMatrix type="matrix" values="0 0 0 0 0 0 0 0 0 0 0 0 0 0 0 0 0 0 0.08 0"/>
<feBlend mode="normal" in2="BackgroundImageFix" result="effect1_dropShadow_1056_12181"/>
<feBlend mode="normal" in="SourceGraphic" in2="effect1_dropShadow_1056_12181" result="shape"/>
</filter>
<filter id="filter8_d_1056_12181" x="33.5394" y="-55.1856" width="164.888" height="164.889" filterUnits="userSpaceOnUse" color-interpolation-filters="sRGB">
<feFlood flood-opacity="0" result="BackgroundImageFix"/>
<feColorMatrix in="SourceAlpha" type="matrix" values="0 0 0 0 0 0 0 0 0 0 0 0 0 0 0 0 0 0 127 0" result="hardAlpha"/>
<feOffset dy="3.83461"/>
<feGaussianBlur stdDeviation="25.8836"/>
<feComposite in2="hardAlpha" operator="out"/>
<feColorMatrix type="matrix" values="0 0 0 0 0 0 0 0 0 0 0 0 0 0 0 0 0 0 0.08 0"/>
<feBlend mode="normal" in2="BackgroundImageFix" result="effect1_dropShadow_1056_12181"/>
<feBlend mode="normal" in="SourceGraphic" in2="effect1_dropShadow_1056_12181" result="shape"/>
</filter>
<filter id="filter9_d_1056_12181" x="70.0398" y="348.854" width="161.568" height="161.568" filterUnits="userSpaceOnUse" color-interpolation-filters="sRGB">
<feFlood flood-opacity="0" result="BackgroundImageFix"/>
<feColorMatrix in="SourceAlpha" type="matrix" values="0 0 0 0 0 0 0 0 0 0 0 0 0 0 0 0 0 0 127 0" result="hardAlpha"/>
<feOffset dy="3.75739"/>
<feGaussianBlur stdDeviation="25.3624"/>
<feComposite in2="hardAlpha" operator="out"/>
<feColorMatrix type="matrix" values="0 0 0 0 0 0 0 0 0 0 0 0 0 0 0 0 0 0 0.08 0"/>
<feBlend mode="normal" in2="BackgroundImageFix" result="effect1_dropShadow_1056_12181"/>
<feBlend mode="normal" in="SourceGraphic" in2="effect1_dropShadow_1056_12181" result="shape"/>
</filter>
<filter id="filter10_d_1056_12181" x="510.841" y="44.6269" width="164.888" height="164.889" filterUnits="userSpaceOnUse" color-interpolation-filters="sRGB">
<feFlood flood-opacity="0" result="BackgroundImageFix"/>
<feColorMatrix in="SourceAlpha" type="matrix" values="0 0 0 0 0 0 0 0 0 0 0 0 0 0 0 0 0 0 127 0" result="hardAlpha"/>
<feOffset dy="3.83461"/>
<feGaussianBlur stdDeviation="25.8836"/>
<feComposite in2="hardAlpha" operator="out"/>
<feColorMatrix type="matrix" values="0 0 0 0 0 0 0 0 0 0 0 0 0 0 0 0 0 0 0.08 0"/>
<feBlend mode="normal" in2="BackgroundImageFix" result="effect1_dropShadow_1056_12181"/>
<feBlend mode="normal" in="SourceGraphic" in2="effect1_dropShadow_1056_12181" result="shape"/>
</filter>
<linearGradient id="paint0_linear_1056_12181" x1="245.559" y1="231.464" x2="417.564" y2="231.464" gradientUnits="userSpaceOnUse">
<stop stop-color="#B7C2D0"/>
<stop offset="0.0295345" stop-color="#CAD4DB"/>
<stop offset="0.0625" stop-color="#BECCDE"/>
<stop offset="0.133609" stop-color="#B7C2D0" stop-opacity="0.3"/>
<stop offset="0.865967" stop-color="#B7C2D0" stop-opacity="0.3"/>
<stop offset="0.941937" stop-color="#BECCDE"/>
<stop offset="0.971275" stop-color="#CAD4DB"/>
<stop offset="0.996436" stop-color="#B7C2D0"/>
</linearGradient>
<linearGradient id="paint1_linear_1056_12181" x1="331.561" y1="233" x2="331.561" y2="236.924" gradientUnits="userSpaceOnUse">
<stop stop-color="#D1DBE9" stop-opacity="0.6"/>
<stop offset="1" stop-color="#AAB5C6" stop-opacity="0.6"/>
</linearGradient>
<linearGradient id="paint2_linear_1056_12181" x1="320.213" y1="231.378" x2="343.591" y2="231.378" gradientUnits="userSpaceOnUse">
<stop stop-color="#CFD9E7"/>
<stop offset="0.317518" stop-color="#CFD9E7" stop-opacity="0"/>
<stop offset="0.660584" stop-color="#CFD9E7" stop-opacity="0"/>
<stop offset="1" stop-color="#CFD9E7"/>
</linearGradient>
<linearGradient id="paint3_linear_1056_12181" x1="216.508" y1="247.168" x2="438.291" y2="247.168" gradientUnits="userSpaceOnUse">
<stop stop-color="#B7C2D0"/>
<stop offset="0.0295345" stop-color="#CAD4DB"/>
<stop offset="0.0625" stop-color="#BECCDE"/>
<stop offset="0.133609" stop-color="#B7C2D0" stop-opacity="0.3"/>
<stop offset="0.865967" stop-color="#B7C2D0" stop-opacity="0.3"/>
<stop offset="0.941937" stop-color="#BECCDE"/>
<stop offset="0.971275" stop-color="#CAD4DB"/>
<stop offset="0.996436" stop-color="#B7C2D0"/>
</linearGradient>
<linearGradient id="paint4_linear_1056_12181" x1="327.399" y1="249.148" x2="327.399" y2="254.209" gradientUnits="userSpaceOnUse">
<stop stop-color="#D1DBE9" stop-opacity="0.6"/>
<stop offset="1" stop-color="#AAB5C6" stop-opacity="0.6"/>
</linearGradient>
<linearGradient id="paint5_linear_1056_12181" x1="312.767" y1="247.058" x2="342.91" y2="247.058" gradientUnits="userSpaceOnUse">
<stop stop-color="#CFD9E7"/>
<stop offset="0.317518" stop-color="#CFD9E7" stop-opacity="0"/>
<stop offset="0.660584" stop-color="#CFD9E7" stop-opacity="0"/>
<stop offset="1" stop-color="#CFD9E7"/>
</linearGradient>
<clipPath id="clip0_1056_12181">
<rect width="663.111" height="373" rx="22.1037" fill="white"/>
</clipPath>
<clipPath id="clip1_1056_12181">
<rect width="31.3687" height="35.7764" fill="white" transform="translate(38.8232 123.652)"/>
</clipPath>
<clipPath id="clip2_1056_12181">
<rect width="41.9734" height="24.5964" fill="white" transform="translate(572.299 110.938)"/>
</clipPath>
</defs>
</svg>
