<svg width="640" height="357" viewBox="0 0 640 357" fill="none" xmlns="http://www.w3.org/2000/svg">
<g clip-path="url(#clip0_3310_69019)">
<mask id="mask0_3310_69019" style="mask-type:luminance" maskUnits="userSpaceOnUse" x="0" y="0" width="640" height="357">
<path d="M617.838 0H21.3048C9.53847 0 0 9.47166 0 21.1556V335.844C0 347.528 9.53847 357 21.3048 357H617.838C629.605 357 639.143 347.528 639.143 335.844V21.1556C639.143 9.47166 629.605 0 617.838 0Z" fill="white"/>
</mask>
<g mask="url(#mask0_3310_69019)">
<path d="M617.838 0H21.3048C9.53847 0 0 9.47166 0 21.1556V335.844C0 347.528 9.53847 357 21.3048 357H617.838C629.605 357 639.143 347.528 639.143 335.844V21.1556C639.143 9.47166 629.605 0 617.838 0Z" fill="#00B8F5"/>
<g opacity="0.4" filter="url(#filter0_f_3310_69019)">
<path d="M319.66 226.76C360.763 226.76 394.083 226.395 394.083 225.944C394.083 225.493 360.763 225.127 319.66 225.127C278.557 225.127 245.236 225.493 245.236 225.944C245.236 226.395 278.557 226.76 319.66 226.76Z" fill="black"/>
</g>
<path d="M257.406 130.402H382.405C384.858 130.402 386.846 132.376 386.846 134.812V220.065C386.846 220.335 386.626 220.555 386.353 220.555H253.459C253.187 220.555 252.966 220.335 252.966 220.065V134.812C252.966 132.376 254.954 130.402 257.406 130.402Z" fill="#E2E8F0" stroke="#CBD5E0" stroke-width="0.34128"/>
<path d="M253.623 134.648C253.623 132.663 255.243 131.055 257.241 131.055H382.569C384.568 131.055 386.188 132.663 386.188 134.648V217.289H253.623V134.648Z" fill="#E2E8F0"/>
<path d="M382.901 135.301H256.257V213.695H382.901V135.301Z" fill="white"/>
<path d="M236.683 220.392C236.683 220.212 236.83 220.065 237.012 220.065H402.142C402.324 220.065 402.471 220.212 402.471 220.392V223.004H236.683V220.392Z" fill="#E2E8F0"/>
<path d="M236.683 220.392C236.683 220.212 236.83 220.065 237.012 220.065H402.142C402.324 220.065 402.471 220.212 402.471 220.392V223.004H236.683V220.392Z" fill="url(#paint0_linear_3310_69019)"/>
<path d="M236.683 223.005H402.471C396.003 225.488 389.128 226.761 382.193 226.761H255.218C248.848 226.761 242.544 225.483 236.683 223.005Z" fill="#E2E8F0"/>
<path d="M236.683 223.005H402.471C396.003 225.488 389.128 226.761 382.193 226.761H255.218C248.848 226.761 242.544 225.483 236.683 223.005Z" fill="url(#paint1_linear_3310_69019)"/>
<path fill-rule="evenodd" clip-rule="evenodd" d="M305.931 220.065C306.015 221.342 307.085 222.352 308.392 222.352H330.925C332.232 222.352 333.302 221.342 333.387 220.065H305.931Z" fill="#E2E8F0"/>
<path fill-rule="evenodd" clip-rule="evenodd" d="M305.931 220.065C306.015 221.342 307.085 222.352 308.392 222.352H330.925C332.232 222.352 333.302 221.342 333.387 220.065H305.931Z" fill="url(#paint2_linear_3310_69019)"/>
<path d="M294.093 166.791C294.093 160.48 294.093 157.324 295.329 154.914C296.417 152.793 298.153 151.07 300.289 149.989C302.716 148.761 305.894 148.761 312.25 148.761H326.92C333.276 148.761 336.454 148.761 338.881 149.989C341.017 151.07 342.753 152.793 343.841 154.914C345.078 157.324 345.078 160.48 345.078 166.791V181.359C345.078 187.67 345.078 190.826 343.841 193.237C342.753 195.357 341.017 197.08 338.881 198.161C336.454 199.389 333.276 199.389 326.92 199.389H312.25C305.894 199.389 302.716 199.389 300.289 198.161C298.153 197.08 296.417 195.357 295.329 193.237C294.093 190.826 294.093 187.67 294.093 181.359V166.791Z" fill="#764231"/>
<path d="M313.666 186.252C320.262 186.252 323.133 184.128 323.133 180.942C323.133 177.917 320.228 175.89 314.692 175.89H313.666C311.992 175.89 308.804 175.949 308.804 174.984C308.804 173.89 311.411 173.991 313.257 173.991C318.177 173.991 321.56 172.125 321.56 169.068C321.56 167.748 321.014 166.847 319.955 166.139C321.116 165.913 322.244 165.624 323.201 165.238L321.801 161.898C319.512 163.025 316.532 163.363 313.593 163.363C308.912 163.363 305.5 164.948 305.5 168.52C305.5 170.258 306.32 171.384 307.687 172.253C305.704 172.801 304.156 173.954 304.156 175.692C304.156 177.268 305.5 178.336 307.003 178.979C305.192 179.687 304.167 180.781 304.167 182.293C304.167 184.289 306.661 186.252 313.666 186.252ZM313.598 170.451C311.446 170.451 310.42 169.678 310.42 168.488C310.42 167.297 311.446 166.461 313.598 166.461C315.718 166.461 316.674 167.297 316.674 168.488C316.674 169.678 315.718 170.451 313.598 170.451ZM313.633 182.873C310.659 182.873 309.566 182.358 309.566 181.425C309.566 180.492 310.659 179.977 313.633 179.977C316.605 179.977 317.665 180.492 317.665 181.425C317.665 182.358 316.605 182.873 313.633 182.873Z" fill="white"/>
<path d="M329.945 167.239V172.28V181.259H324.902V163.357H326.035C328.195 163.357 329.945 165.095 329.945 167.239Z" fill="white"/>
<path d="M332.925 169.79C334.179 169.651 337.381 168.892 338.989 164.812C337.312 163.234 334.725 162.863 332.62 164.066C330.871 165.065 329.94 166.884 329.94 168.758V169.821H332.033C332.331 169.823 332.628 169.824 332.925 169.79Z" fill="#2FCE65"/>
<path d="M313.59 344.559C406.311 344.559 481.477 269.92 481.477 177.848C481.477 85.7767 406.311 11.1379 313.59 11.1379C220.869 11.1379 145.704 85.7767 145.704 177.848C145.704 269.92 220.869 344.559 313.59 344.559Z" stroke="white" stroke-width="0.898618"/>
<g filter="url(#filter1_d_3310_69019)">
<path d="M187.066 241.305H167.031C157.811 241.305 150.336 248.727 150.336 257.883V277.777C150.336 286.933 157.811 294.355 167.031 294.355H187.066C196.286 294.355 203.761 286.933 203.761 277.777V257.883C203.761 248.727 196.286 241.305 187.066 241.305Z" fill="white"/>
<path fill-rule="evenodd" clip-rule="evenodd" d="M167.895 275.623C167.895 277.417 171.994 278.87 177.051 278.87C182.106 278.87 186.205 277.417 186.205 275.623V260.038C186.205 258.246 182.106 256.792 177.051 256.792C171.994 256.792 167.895 258.246 167.895 260.038V275.623Z" stroke="#764231" stroke-width="2.03324" stroke-linecap="round" stroke-linejoin="round"/>
<path d="M186.205 260.039C186.205 261.832 182.106 263.286 177.051 263.286C171.994 263.286 167.895 261.832 167.895 260.039" stroke="#764231" stroke-width="2.03324" stroke-linecap="round" stroke-linejoin="round"/>
<path d="M186.205 270.429C186.205 272.223 182.106 273.675 177.051 273.675C171.994 273.675 167.895 272.223 167.895 270.429" stroke="#764231" stroke-width="2.03324" stroke-linecap="round" stroke-linejoin="round"/>
<path d="M186.205 265.234C186.205 267.027 182.106 268.48 177.051 268.48C171.994 268.48 167.895 267.027 167.895 265.234" stroke="#764231" stroke-width="2.03324" stroke-linecap="round" stroke-linejoin="round"/>
</g>
<g filter="url(#filter2_d_3310_69019)">
<path d="M462.505 64.9233H442.47C433.25 64.9233 425.775 72.3456 425.775 81.5014V101.395C425.775 110.551 433.25 117.973 442.47 117.973H462.505C471.725 117.973 479.2 110.551 479.2 101.395V81.5014C479.2 72.3456 471.725 64.9233 462.505 64.9233Z" fill="white"/>
<path fill-rule="evenodd" clip-rule="evenodd" d="M447.261 81.0591L448.961 78.9487C449.21 78.6409 449.585 78.4617 449.983 78.4617H455.003C455.401 78.4617 455.776 78.6409 456.025 78.9487L457.723 81.0591V82.3578C457.723 83.0746 457.137 83.6565 456.415 83.6565H448.569C447.847 83.6565 447.261 83.0746 447.261 82.3578V81.0591Z" stroke="#764231" stroke-width="2.01009" stroke-linecap="round" stroke-linejoin="round"/>
<path d="M447.26 81.0586H444.644C443.199 81.0586 442.028 82.2209 442.028 83.656V100.539C442.028 101.974 443.199 103.136 444.644 103.136H460.338C461.783 103.136 462.954 101.974 462.954 100.539V83.656C462.954 82.2209 461.783 81.0586 460.338 81.0586H457.722" stroke="#764231" stroke-width="2.01009" stroke-linecap="round" stroke-linejoin="round"/>
<path d="M447.261 90.1499H457.723" stroke="#764231" stroke-width="2.01009" stroke-linecap="round" stroke-linejoin="round"/>
<path d="M447.261 96.6438H457.723" stroke="#764231" stroke-width="2.01009" stroke-linecap="round" stroke-linejoin="round"/>
</g>
<path d="M245.17 306.204H109.529C102.802 306.204 97.3494 309.697 97.3494 314.005V328.072C97.3494 332.381 102.802 335.874 109.529 335.874H245.17C251.896 335.874 257.349 332.381 257.349 328.072V314.005C257.349 309.697 251.896 306.204 245.17 306.204Z" fill="#FF6633"/>
<path d="M183.559 306.266L179.189 301.927C178.413 301.156 177.154 301.156 176.378 301.927L172.008 306.266C171.232 307.037 171.232 308.287 172.008 309.058L176.378 313.397C177.154 314.168 178.413 314.168 179.189 313.397L183.559 309.058C184.336 308.287 184.336 307.037 183.559 306.266Z" fill="#FF6633"/>
<path d="M503.278 23.4692H405.085C400.694 23.4692 397.134 27.0044 397.134 31.3652V45.6022C397.134 49.963 400.694 53.4982 405.085 53.4982H503.278C507.67 53.4982 511.23 49.963 511.23 45.6022V31.3652C511.23 27.0044 507.67 23.4692 503.278 23.4692Z" fill="#FF6633"/>
<path d="M459.922 51.8018L455.552 47.4625C454.776 46.6916 453.517 46.6916 452.741 47.4625L448.371 51.8018C447.595 52.5727 447.595 53.8226 448.371 54.5935L452.741 58.9328C453.517 59.7037 454.776 59.7037 455.552 58.9328L459.922 54.5935C460.698 53.8226 460.698 52.5727 459.922 51.8018Z" fill="#FF6633"/>
<g opacity="0.4" filter="url(#filter3_f_3310_69019)">
<path d="M315.672 243.305C368.671 243.305 411.634 242.833 411.634 242.252C411.634 241.67 368.671 241.199 315.672 241.199C262.674 241.199 219.71 241.67 219.71 242.252C219.71 242.833 262.674 243.305 315.672 243.305Z" fill="black"/>
</g>
<path d="M235.402 119.059H396.575C399.738 119.059 402.302 121.605 402.302 124.745V234.671C402.302 235.02 402.017 235.302 401.666 235.302H230.312C229.961 235.302 229.676 235.02 229.676 234.671V124.745C229.676 121.605 232.24 119.059 235.402 119.059Z" fill="#E2E8F0" stroke="#CBD5E0" stroke-width="0.440046"/>
<path d="M230.523 124.535C230.523 121.976 232.612 119.901 235.188 119.901H396.787C399.363 119.901 401.453 121.976 401.453 124.535V231.091H230.523V124.535Z" fill="#E2E8F0"/>
<path d="M397.212 125.377H233.917V226.458H397.212V125.377Z" fill="white"/>
<path d="M208.682 235.092C208.682 234.859 208.872 234.671 209.106 234.671H422.025C422.259 234.671 422.449 234.859 422.449 235.092V238.461H208.682V235.092Z" fill="#E2E8F0"/>
<path d="M208.682 235.092C208.682 234.859 208.872 234.671 209.106 234.671H422.025C422.259 234.671 422.449 234.859 422.449 235.092V238.461H208.682V235.092Z" fill="url(#paint3_linear_3310_69019)"/>
<path d="M208.682 238.461H422.449C414.109 241.662 405.244 243.305 396.303 243.305H232.581C224.368 243.305 216.239 241.657 208.682 238.461Z" fill="#E2E8F0"/>
<path d="M208.682 238.461H422.449C414.109 241.662 405.244 243.305 396.303 243.305H232.581C224.368 243.305 216.239 241.657 208.682 238.461Z" fill="url(#paint4_linear_3310_69019)"/>
<path fill-rule="evenodd" clip-rule="evenodd" d="M297.97 234.671C298.079 236.317 299.458 237.619 301.144 237.619H330.198C331.883 237.619 333.263 236.317 333.372 234.671H297.97Z" fill="#E2E8F0"/>
<path fill-rule="evenodd" clip-rule="evenodd" d="M297.97 234.671C298.079 236.317 299.458 237.619 301.144 237.619H330.198C331.883 237.619 333.263 236.317 333.372 234.671H297.97Z" fill="url(#paint5_linear_3310_69019)"/>
<path d="M282.621 165.057C282.621 156.918 282.621 152.85 284.215 149.742C285.618 147.009 287.856 144.785 290.61 143.393C293.74 141.809 297.837 141.809 306.032 141.809H324.949C333.144 141.809 337.241 141.809 340.371 143.393C343.125 144.785 345.363 147.009 346.765 149.742C348.361 152.85 348.361 156.918 348.361 165.057V183.841C348.361 191.978 348.361 196.047 346.765 199.154C345.363 201.889 343.125 204.111 340.371 205.505C337.241 207.088 333.144 207.088 324.949 207.088H306.032C297.837 207.088 293.74 207.088 290.61 205.505C287.856 204.111 285.618 201.889 284.215 199.154C282.621 196.047 282.621 191.978 282.621 183.841V165.057Z" fill="#123239"/>
<path d="M433.1 226.954L399.788 215.492C394.615 213.712 389.652 218.639 391.445 223.777L402.989 256.855C404.919 262.387 412.647 262.777 415.132 257.468L420.692 245.587C420.909 245.123 421.285 244.75 421.753 244.534L433.717 239.013C439.063 236.546 438.671 228.871 433.1 226.954Z" fill="white" stroke="#101010" stroke-width="4.53581"/>
<path d="M315.462 451.59C463.071 451.59 582.732 332.767 582.732 186.191C582.732 39.6159 463.071 -79.207 315.462 -79.207C167.853 -79.207 48.1918 39.6159 48.1918 186.191C48.1918 332.767 167.853 451.59 315.462 451.59Z" stroke="white" stroke-width="1.43058"/>
<g filter="url(#filter4_d_3310_69019)">
<path d="M65.7356 106.108H39.34C30.299 106.108 22.9697 113.386 22.9697 122.364V148.575C22.9697 157.552 30.299 164.83 39.34 164.83H65.7356C74.7767 164.83 82.1059 157.552 82.1059 148.575V122.364C82.1059 113.386 74.7767 106.108 65.7356 106.108Z" fill="#9EBE59"/>
</g>
<g filter="url(#filter5_d_3310_69019)">
<path d="M522.123 345.099H495.727C486.686 345.099 479.357 352.377 479.357 361.355V387.566C479.357 396.543 486.686 403.821 495.727 403.821H522.123C531.164 403.821 538.493 396.543 538.493 387.566V361.355C538.493 352.377 531.164 345.099 522.123 345.099Z" fill="#635BFF"/>
</g>
<g filter="url(#filter6_d_3310_69019)">
<path d="M577.715 246.594H551.32C542.279 246.594 534.949 253.872 534.949 262.85V289.061C534.949 298.038 542.279 305.316 551.32 305.316H577.715C586.756 305.316 594.086 298.038 594.086 289.061V262.85C594.086 253.872 586.756 246.594 577.715 246.594Z" fill="#2F84A7"/>
</g>
<g filter="url(#filter7_d_3310_69019)">
<path d="M76.0557 247.917H49.6601C40.619 247.917 33.2898 255.195 33.2898 264.173V290.383C33.2898 299.361 40.619 306.639 49.6601 306.639H76.0557C85.0967 306.639 92.426 299.361 92.426 290.383V264.173C92.426 255.195 85.0967 247.917 76.0557 247.917Z" fill="#4670CE"/>
</g>
<g filter="url(#filter8_d_3310_69019)">
<path d="M124.989 -6.94165H98.5936C89.5525 -6.94165 82.2233 0.336254 82.2233 9.314V35.5247C82.2233 44.5024 89.5525 51.7803 98.5936 51.7803H124.989C134.03 51.7803 141.359 44.5024 141.359 35.5247V9.314C141.359 0.336254 134.03 -6.94165 124.989 -6.94165Z" fill="#123239"/>
</g>
<g filter="url(#filter9_d_3310_69019)">
</g>
<g filter="url(#filter10_d_3310_69019)">
<path d="M585.039 88.5894H558.643C549.602 88.5894 542.273 95.8673 542.273 104.845V131.056C542.273 140.033 549.602 147.311 558.643 147.311H585.039C594.08 147.311 601.409 140.033 601.409 131.056V104.845C601.409 95.8673 594.08 88.5894 585.039 88.5894Z" fill="#F19F39"/>
<path d="M579.759 130.884H585.904V132.918H579.759V130.884Z" fill="white"/>
<path d="M576.687 132.918C577.252 132.918 577.711 132.463 577.711 131.901C577.711 131.34 577.252 130.884 576.687 130.884C576.121 130.884 575.663 131.34 575.663 131.901C575.663 132.463 576.121 132.918 576.687 132.918Z" fill="white"/>
<path d="M584.88 128.85C585.445 128.85 585.904 128.395 585.904 127.834C585.904 127.272 585.445 126.817 584.88 126.817C584.314 126.817 583.855 127.272 583.855 127.834C583.855 128.395 584.314 128.85 584.88 128.85Z" fill="white"/>
<path d="M581.807 128.85H575.663V126.816H581.807V128.85ZM579.759 122.749H585.904V124.783H579.759V122.749Z" fill="white"/>
<path d="M576.687 124.783C577.252 124.783 577.711 124.327 577.711 123.766C577.711 123.204 577.252 122.749 576.687 122.749C576.121 122.749 575.663 123.204 575.663 123.766C575.663 124.327 576.121 124.783 576.687 124.783Z" fill="white"/>
<path d="M577.192 116.78L568.487 111.883C568.333 111.797 568.159 111.751 567.982 111.751C567.805 111.751 567.631 111.797 567.477 111.883L558.772 116.78C558.615 116.868 558.483 116.997 558.392 117.152C558.301 117.308 558.253 117.484 558.253 117.664V127.834C558.253 128.013 558.301 128.19 558.392 128.346C558.483 128.501 558.615 128.63 558.772 128.718L567.477 133.615L568.487 131.845L560.301 127.241V118.257L567.982 113.937L575.663 118.257V120.715H577.711V117.664C577.711 117.484 577.663 117.308 577.572 117.152C577.48 116.997 577.349 116.868 577.192 116.78Z" fill="white"/>
<path d="M580.783 117.664H582.831V109.529C582.831 109.349 582.783 109.172 582.692 109.017C582.601 108.861 582.47 108.733 582.312 108.644L573.607 103.748C573.453 103.661 573.279 103.615 573.102 103.615C572.925 103.615 572.751 103.661 572.598 103.748L563.893 108.644L564.902 110.414L573.102 105.801L580.783 110.122V117.664Z" fill="white"/>
</g>
</g>
<path d="M725.237 -12.4424H-5.78308V381.911H725.237V-12.4424Z" fill="#101010" fill-opacity="0.2"/>
<path d="M109.398 36.1929C109.231 36.1929 109.067 36.15 108.922 36.0684L100.73 31.46C100.581 31.3765 100.458 31.2555 100.372 31.1092C100.286 30.9629 100.241 30.7966 100.241 30.6273V21.0563C100.241 20.8869 100.286 20.7207 100.372 20.5744C100.458 20.4281 100.581 20.307 100.73 20.2236L108.922 15.6151C109.067 15.5336 109.231 15.4907 109.398 15.4907C109.564 15.4907 109.728 15.5336 109.873 15.6151L118.066 20.2236C118.214 20.307 118.337 20.4281 118.423 20.5744C118.509 20.7207 118.554 20.8869 118.554 21.0563V30.6273C118.554 30.7966 118.509 30.9629 118.423 31.1092C118.337 31.2555 118.214 31.3765 118.066 31.46L109.873 36.0684C109.728 36.15 109.564 36.1929 109.398 36.1929ZM102.169 30.0693L109.398 34.136L116.627 30.0693V21.6142L109.398 17.5485L102.169 21.6142V30.0693Z" fill="white"/>
<path d="M123.373 22.9706H121.446V13.9575L114.217 9.89173L106.499 14.2322L105.549 12.5668L113.742 7.95838C113.887 7.87684 114.05 7.83398 114.217 7.83398C114.383 7.83398 114.547 7.87684 114.692 7.95838L122.885 12.5668C123.033 12.6503 123.156 12.7714 123.242 12.9176C123.328 13.0639 123.373 13.2302 123.373 13.3995V22.9706Z" fill="white"/>
<g clip-path="url(#clip1_3310_69019)">
<path d="M67.4698 141.651V139.737H65.4457C65.3204 139.138 65.0805 138.569 64.7392 138.059L66.1753 136.633L64.8125 135.28L63.3763 136.706C62.8634 136.367 62.2898 136.13 61.6867 136.006V133.995H59.759V136.006C59.1558 136.13 58.5823 136.367 58.0693 136.706L56.6332 135.28L55.2703 136.633L56.7064 138.059C56.3651 138.569 56.1253 139.138 55.9999 139.737H53.9758V141.651H55.9999C56.1252 142.261 56.37 142.828 56.7055 143.329L55.2693 144.755L56.6322 146.109L58.0684 144.683C58.5815 145.022 59.1554 145.26 59.759 145.384V147.394H61.6867V145.384C62.2898 145.26 62.8634 145.022 63.3763 144.684L64.8125 146.11L66.1753 144.756L64.7392 143.33C65.0807 142.821 65.3205 142.251 65.4457 141.651H67.4698ZM60.7228 143.566C59.9559 143.566 59.2204 143.263 58.6782 142.725C58.1359 142.186 57.8313 141.456 57.8313 140.694C57.8313 139.933 58.1359 139.203 58.6782 138.664C59.2204 138.126 59.9559 137.823 60.7228 137.823C61.4897 137.823 62.2252 138.126 62.7675 138.664C63.3097 139.203 63.6144 139.933 63.6144 140.694C63.6144 141.456 63.3097 142.186 62.7675 142.725C62.2252 143.263 61.4897 143.566 60.7228 143.566Z" fill="white"/>
<path d="M57.8313 126.338C57.8313 123.699 55.6694 121.552 53.012 121.552C51.2964 121.552 49.6973 122.469 48.8385 123.945C48.5316 124.475 48.3257 125.058 48.2313 125.662C47.0947 124.857 45.7335 124.424 44.3373 124.424C40.6168 124.424 37.5903 127.429 37.5903 131.123C37.5916 132.35 37.9319 133.553 38.5741 134.6C39.2164 135.648 40.136 136.501 41.2327 137.065C40.1927 137.944 39.518 139.236 39.518 140.694C39.518 143.333 41.68 145.48 44.3373 145.48C45.0448 145.48 45.7127 145.319 46.318 145.045C46.585 147.435 48.6072 149.308 51.0843 149.308C51.7175 149.31 52.3447 149.187 52.9297 148.946C53.5147 148.706 54.0459 148.353 54.4925 147.907L53.1286 146.553C52.8608 146.82 52.5423 147.032 52.1913 147.177C51.8404 147.321 51.4642 147.395 51.0843 147.394C49.4901 147.394 48.1927 146.106 48.1927 144.523C48.1927 142.94 49.4901 141.651 51.0843 141.651V139.737C50.3759 139.737 49.7089 139.899 49.1036 140.172C48.9675 138.965 48.3741 137.854 47.4438 137.065C48.5402 136.5 49.4594 135.648 50.1013 134.6C50.7433 133.552 51.0833 132.35 51.0843 131.123C51.0843 130.983 51.0708 130.845 51.0621 130.706C51.6597 130.97 52.3171 131.123 53.012 131.123C55.6694 131.123 57.8313 128.977 57.8313 126.338ZM50.506 124.902C50.7607 124.466 51.1262 124.104 51.5659 123.852C52.0057 123.6 52.5043 123.467 53.012 123.466C54.6062 123.466 55.9036 124.755 55.9036 126.338C55.9036 127.921 54.6062 129.209 53.012 129.209C51.4178 129.209 50.1205 127.921 50.1205 126.338H50.0915C50.1262 125.786 50.2573 125.331 50.506 124.902ZM47.2289 140.694C47.2289 142.277 45.9315 143.566 44.3373 143.566C42.7431 143.566 41.4458 142.277 41.4458 140.694C41.4458 139.111 42.7431 137.823 44.3373 137.823C45.9315 137.823 47.2289 139.111 47.2289 140.694ZM44.3373 135.909C41.68 135.909 39.518 133.762 39.518 131.123C39.518 128.485 41.68 126.338 44.3373 126.338C46.9947 126.338 49.1566 128.485 49.1566 131.123C49.1566 133.762 46.9947 135.909 44.3373 135.909Z" fill="white"/>
</g>
<path d="M55.4524 269.89C55.3058 269.89 55.1859 270.009 55.1859 270.154V271.734C55.1859 271.879 55.3058 271.998 55.4524 271.998H68.2492C68.3958 271.998 68.5158 271.879 68.5158 271.734V270.154C68.5158 270.009 68.3958 269.89 68.2492 269.89H55.4524ZM61.5842 274.632H55.4524C55.3058 274.632 55.1859 274.751 55.1859 274.895V276.476C55.1859 276.621 55.3058 276.739 55.4524 276.739H61.5842C61.7308 276.739 61.8508 276.621 61.8508 276.476V274.895C61.8508 274.751 61.7308 274.632 61.5842 274.632ZM59.9846 289.713H52.5199V266.532H71.1818V277.069C71.1818 277.214 71.3017 277.332 71.4483 277.332H73.3145C73.4612 277.332 73.5811 277.214 73.5811 277.069V265.215C73.5811 264.632 73.1046 264.161 72.5147 264.161H51.1869C50.597 264.161 50.1205 264.632 50.1205 265.215V291.03C50.1205 291.613 50.597 292.084 51.1869 292.084H59.9846C60.1313 292.084 60.2512 291.965 60.2512 291.82V289.976C60.2512 289.831 60.1313 289.713 59.9846 289.713ZM74.6475 286.815H69.8488V285.61C71.3917 285.156 72.5147 283.746 72.5147 282.074C72.5147 280.035 70.8452 278.386 68.7824 278.386C66.7196 278.386 65.05 280.035 65.05 282.074C65.05 283.743 66.173 285.156 67.716 285.61V286.815H62.9172C62.6239 286.815 62.384 287.052 62.384 287.342V292.347C62.384 292.637 62.6239 292.874 62.9172 292.874H74.6475C74.9408 292.874 75.1807 292.637 75.1807 292.347V287.342C75.1807 287.052 74.9408 286.815 74.6475 286.815ZM67.1161 282.074C67.1161 281.165 67.8626 280.427 68.7824 280.427C69.7021 280.427 70.4486 281.165 70.4486 282.074C70.4486 282.982 69.7021 283.72 68.7824 283.72C67.8626 283.72 67.1161 282.982 67.1161 282.074ZM73.1146 290.832H64.4501V288.857H73.1146V290.832Z" fill="white"/>
<path d="M410.508 35.98V38.08H413.328V39.412H410.508V41.632H413.688V43H408.828V34.612H413.688V35.98H410.508ZM423.471 36.256C424.287 36.256 424.943 36.508 425.439 37.012C425.943 37.508 426.195 38.204 426.195 39.1V43H424.515V39.328C424.515 38.808 424.383 38.412 424.119 38.14C423.855 37.86 423.495 37.72 423.039 37.72C422.583 37.72 422.219 37.86 421.947 38.14C421.683 38.412 421.551 38.808 421.551 39.328V43H419.871V39.328C419.871 38.808 419.739 38.412 419.475 38.14C419.211 37.86 418.851 37.72 418.395 37.72C417.931 37.72 417.563 37.86 417.291 38.14C417.027 38.412 416.895 38.808 416.895 39.328V43H415.215V36.352H416.895V37.156C417.111 36.876 417.387 36.656 417.723 36.496C418.067 36.336 418.443 36.256 418.851 36.256C419.371 36.256 419.835 36.368 420.243 36.592C420.651 36.808 420.967 37.12 421.191 37.528C421.407 37.144 421.719 36.836 422.127 36.604C422.543 36.372 422.991 36.256 423.471 36.256ZM428.641 35.56C428.345 35.56 428.097 35.468 427.897 35.284C427.705 35.092 427.609 34.856 427.609 34.576C427.609 34.296 427.705 34.064 427.897 33.88C428.097 33.688 428.345 33.592 428.641 33.592C428.937 33.592 429.181 33.688 429.373 33.88C429.573 34.064 429.673 34.296 429.673 34.576C429.673 34.856 429.573 35.092 429.373 35.284C429.181 35.468 428.937 35.56 428.641 35.56ZM429.469 36.352V43H427.789V36.352H429.469ZM433.673 43.108C433.129 43.108 432.641 43.012 432.209 42.82C431.777 42.62 431.433 42.352 431.177 42.016C430.929 41.68 430.793 41.308 430.769 40.9H432.461C432.493 41.156 432.617 41.368 432.833 41.536C433.057 41.704 433.333 41.788 433.661 41.788C433.981 41.788 434.229 41.724 434.405 41.596C434.589 41.468 434.681 41.304 434.681 41.104C434.681 40.888 434.569 40.728 434.345 40.624C434.129 40.512 433.781 40.392 433.301 40.264C432.805 40.144 432.397 40.02 432.077 39.892C431.765 39.764 431.493 39.568 431.261 39.304C431.037 39.04 430.925 38.684 430.925 38.236C430.925 37.868 431.029 37.532 431.237 37.228C431.453 36.924 431.757 36.684 432.149 36.508C432.549 36.332 433.017 36.244 433.553 36.244C434.345 36.244 434.977 36.444 435.449 36.844C435.921 37.236 436.181 37.768 436.229 38.44H434.621C434.597 38.176 434.485 37.968 434.285 37.816C434.093 37.656 433.833 37.576 433.505 37.576C433.201 37.576 432.965 37.632 432.797 37.744C432.637 37.856 432.557 38.012 432.557 38.212C432.557 38.436 432.669 38.608 432.893 38.728C433.117 38.84 433.465 38.956 433.937 39.076C434.417 39.196 434.813 39.32 435.125 39.448C435.437 39.576 435.705 39.776 435.929 40.048C436.161 40.312 436.281 40.664 436.289 41.104C436.289 41.488 436.181 41.832 435.965 42.136C435.757 42.44 435.453 42.68 435.053 42.856C434.661 43.024 434.201 43.108 433.673 43.108ZM440.212 43.108C439.668 43.108 439.18 43.012 438.748 42.82C438.316 42.62 437.972 42.352 437.716 42.016C437.468 41.68 437.332 41.308 437.308 40.9H439C439.032 41.156 439.156 41.368 439.372 41.536C439.596 41.704 439.872 41.788 440.2 41.788C440.52 41.788 440.768 41.724 440.944 41.596C441.128 41.468 441.22 41.304 441.22 41.104C441.22 40.888 441.108 40.728 440.884 40.624C440.668 40.512 440.32 40.392 439.84 40.264C439.344 40.144 438.936 40.02 438.616 39.892C438.304 39.764 438.032 39.568 437.8 39.304C437.576 39.04 437.464 38.684 437.464 38.236C437.464 37.868 437.568 37.532 437.776 37.228C437.992 36.924 438.296 36.684 438.688 36.508C439.088 36.332 439.556 36.244 440.092 36.244C440.884 36.244 441.516 36.444 441.988 36.844C442.46 37.236 442.72 37.768 442.768 38.44H441.16C441.136 38.176 441.024 37.968 440.824 37.816C440.632 37.656 440.372 37.576 440.044 37.576C439.74 37.576 439.504 37.632 439.336 37.744C439.176 37.856 439.096 38.012 439.096 38.212C439.096 38.436 439.208 38.608 439.432 38.728C439.656 38.84 440.004 38.956 440.476 39.076C440.956 39.196 441.352 39.32 441.664 39.448C441.976 39.576 442.244 39.776 442.468 40.048C442.7 40.312 442.82 40.664 442.828 41.104C442.828 41.488 442.72 41.832 442.504 42.136C442.296 42.44 441.992 42.68 441.592 42.856C441.2 43.024 440.74 43.108 440.212 43.108ZM445.059 35.56C444.763 35.56 444.515 35.468 444.315 35.284C444.123 35.092 444.027 34.856 444.027 34.576C444.027 34.296 444.123 34.064 444.315 33.88C444.515 33.688 444.763 33.592 445.059 33.592C445.355 33.592 445.599 33.688 445.791 33.88C445.991 34.064 446.091 34.296 446.091 34.576C446.091 34.856 445.991 35.092 445.791 35.284C445.599 35.468 445.355 35.56 445.059 35.56ZM445.887 36.352V43H444.207V36.352H445.887ZM450.499 43.108C449.859 43.108 449.283 42.968 448.771 42.688C448.259 42.4 447.855 41.996 447.559 41.476C447.271 40.956 447.127 40.356 447.127 39.676C447.127 38.996 447.275 38.396 447.571 37.876C447.875 37.356 448.287 36.956 448.807 36.676C449.327 36.388 449.907 36.244 450.547 36.244C451.187 36.244 451.767 36.388 452.287 36.676C452.807 36.956 453.215 37.356 453.511 37.876C453.815 38.396 453.967 38.996 453.967 39.676C453.967 40.356 453.811 40.956 453.499 41.476C453.195 41.996 452.779 42.4 452.251 42.688C451.731 42.968 451.147 43.108 450.499 43.108ZM450.499 41.644C450.803 41.644 451.087 41.572 451.351 41.428C451.623 41.276 451.839 41.052 451.999 40.756C452.159 40.46 452.239 40.1 452.239 39.676C452.239 39.044 452.071 38.56 451.735 38.224C451.407 37.88 451.003 37.708 450.523 37.708C450.043 37.708 449.639 37.88 449.311 38.224C448.991 38.56 448.831 39.044 448.831 39.676C448.831 40.308 448.987 40.796 449.299 41.14C449.619 41.476 450.019 41.644 450.499 41.644ZM458.883 36.256C459.675 36.256 460.315 36.508 460.803 37.012C461.291 37.508 461.535 38.204 461.535 39.1V43H459.855V39.328C459.855 38.8 459.723 38.396 459.459 38.116C459.195 37.828 458.835 37.684 458.379 37.684C457.915 37.684 457.547 37.828 457.275 38.116C457.011 38.396 456.879 38.8 456.879 39.328V43H455.199V36.352H456.879V37.18C457.103 36.892 457.387 36.668 457.731 36.508C458.083 36.34 458.467 36.256 458.883 36.256ZM470.312 43L468.464 39.736H467.672V43H465.992V34.624H469.136C469.784 34.624 470.336 34.74 470.792 34.972C471.248 35.196 471.588 35.504 471.812 35.896C472.044 36.28 472.16 36.712 472.16 37.192C472.16 37.744 472 38.244 471.68 38.692C471.36 39.132 470.884 39.436 470.252 39.604L472.256 43H470.312ZM467.672 38.476H469.076C469.532 38.476 469.872 38.368 470.096 38.152C470.32 37.928 470.432 37.62 470.432 37.228C470.432 36.844 470.32 36.548 470.096 36.34C469.872 36.124 469.532 36.016 469.076 36.016H467.672V38.476ZM479.86 39.532C479.86 39.772 479.844 39.988 479.812 40.18H474.952C474.992 40.66 475.16 41.036 475.456 41.308C475.752 41.58 476.116 41.716 476.548 41.716C477.172 41.716 477.616 41.448 477.88 40.912H479.692C479.5 41.552 479.132 42.08 478.588 42.496C478.044 42.904 477.376 43.108 476.584 43.108C475.944 43.108 475.368 42.968 474.856 42.688C474.352 42.4 473.956 41.996 473.668 41.476C473.388 40.956 473.248 40.356 473.248 39.676C473.248 38.988 473.388 38.384 473.668 37.864C473.948 37.344 474.34 36.944 474.844 36.664C475.348 36.384 475.928 36.244 476.584 36.244C477.216 36.244 477.78 36.38 478.276 36.652C478.78 36.924 479.168 37.312 479.44 37.816C479.72 38.312 479.86 38.884 479.86 39.532ZM478.12 39.052C478.112 38.62 477.956 38.276 477.652 38.02C477.348 37.756 476.976 37.624 476.536 37.624C476.12 37.624 475.768 37.752 475.48 38.008C475.2 38.256 475.028 38.604 474.964 39.052H478.12ZM482.766 37.312C482.982 37.008 483.278 36.756 483.654 36.556C484.038 36.348 484.474 36.244 484.962 36.244C485.53 36.244 486.042 36.384 486.498 36.664C486.962 36.944 487.326 37.344 487.59 37.864C487.862 38.376 487.998 38.972 487.998 39.652C487.998 40.332 487.862 40.936 487.59 41.464C487.326 41.984 486.962 42.388 486.498 42.676C486.042 42.964 485.53 43.108 484.962 43.108C484.474 43.108 484.042 43.008 483.666 42.808C483.298 42.608 482.998 42.356 482.766 42.052V46.168H481.086V36.352H482.766V37.312ZM486.282 39.652C486.282 39.252 486.198 38.908 486.03 38.62C485.87 38.324 485.654 38.1 485.382 37.948C485.118 37.796 484.83 37.72 484.518 37.72C484.214 37.72 483.926 37.8 483.654 37.96C483.39 38.112 483.174 38.336 483.006 38.632C482.846 38.928 482.766 39.276 482.766 39.676C482.766 40.076 482.846 40.424 483.006 40.72C483.174 41.016 483.39 41.244 483.654 41.404C483.926 41.556 484.214 41.632 484.518 41.632C484.83 41.632 485.118 41.552 485.382 41.392C485.654 41.232 485.87 41.004 486.03 40.708C486.198 40.412 486.282 40.06 486.282 39.652ZM492.171 43.108C491.531 43.108 490.955 42.968 490.443 42.688C489.931 42.4 489.527 41.996 489.231 41.476C488.943 40.956 488.799 40.356 488.799 39.676C488.799 38.996 488.947 38.396 489.243 37.876C489.547 37.356 489.959 36.956 490.479 36.676C490.999 36.388 491.579 36.244 492.219 36.244C492.859 36.244 493.439 36.388 493.959 36.676C494.479 36.956 494.887 37.356 495.183 37.876C495.487 38.396 495.639 38.996 495.639 39.676C495.639 40.356 495.483 40.956 495.171 41.476C494.867 41.996 494.451 42.4 493.923 42.688C493.403 42.968 492.819 43.108 492.171 43.108ZM492.171 41.644C492.475 41.644 492.759 41.572 493.023 41.428C493.295 41.276 493.511 41.052 493.671 40.756C493.831 40.46 493.911 40.1 493.911 39.676C493.911 39.044 493.743 38.56 493.407 38.224C493.079 37.88 492.675 37.708 492.195 37.708C491.715 37.708 491.311 37.88 490.983 38.224C490.663 38.56 490.503 39.044 490.503 39.676C490.503 40.308 490.659 40.796 490.971 41.14C491.291 41.476 491.691 41.644 492.171 41.644ZM498.551 37.384C498.767 37.032 499.047 36.756 499.391 36.556C499.743 36.356 500.143 36.256 500.591 36.256V38.02H500.147C499.619 38.02 499.219 38.144 498.947 38.392C498.683 38.64 498.551 39.072 498.551 39.688V43H496.871V36.352H498.551V37.384ZM503.679 37.732V40.948C503.679 41.172 503.731 41.336 503.835 41.44C503.947 41.536 504.131 41.584 504.387 41.584H505.167V43H504.111C502.695 43 501.987 42.312 501.987 40.936V37.732H501.195V36.352H501.987V34.708H503.679V36.352H505.167V37.732H503.679Z" fill="black"/>
<path d="M99.42 321.8C99.42 320.976 99.604 320.24 99.972 319.592C100.348 318.936 100.856 318.428 101.496 318.068C102.144 317.7 102.868 317.516 103.668 317.516C104.604 317.516 105.424 317.756 106.128 318.236C106.832 318.716 107.324 319.38 107.604 320.228H105.672C105.48 319.828 105.208 319.528 104.856 319.328C104.512 319.128 104.112 319.028 103.656 319.028C103.168 319.028 102.732 319.144 102.348 319.376C101.972 319.6 101.676 319.92 101.46 320.336C101.252 320.752 101.148 321.24 101.148 321.8C101.148 322.352 101.252 322.84 101.46 323.264C101.676 323.68 101.972 324.004 102.348 324.236C102.732 324.46 103.168 324.572 103.656 324.572C104.112 324.572 104.512 324.472 104.856 324.272C105.208 324.064 105.48 323.76 105.672 323.36H107.604C107.324 324.216 106.832 324.884 106.128 325.364C105.432 325.836 104.612 326.072 103.668 326.072C102.868 326.072 102.144 325.892 101.496 325.532C100.856 325.164 100.348 324.656 99.972 324.008C99.604 323.36 99.42 322.624 99.42 321.8ZM111.991 326.108C111.351 326.108 110.775 325.968 110.263 325.688C109.751 325.4 109.347 324.996 109.051 324.476C108.763 323.956 108.619 323.356 108.619 322.676C108.619 321.996 108.767 321.396 109.063 320.876C109.367 320.356 109.779 319.956 110.299 319.676C110.819 319.388 111.399 319.244 112.039 319.244C112.679 319.244 113.259 319.388 113.779 319.676C114.299 319.956 114.707 320.356 115.003 320.876C115.307 321.396 115.459 321.996 115.459 322.676C115.459 323.356 115.303 323.956 114.991 324.476C114.687 324.996 114.271 325.4 113.743 325.688C113.223 325.968 112.639 326.108 111.991 326.108ZM111.991 324.644C112.295 324.644 112.579 324.572 112.843 324.428C113.115 324.276 113.331 324.052 113.491 323.756C113.651 323.46 113.731 323.1 113.731 322.676C113.731 322.044 113.563 321.56 113.227 321.224C112.899 320.88 112.495 320.708 112.015 320.708C111.535 320.708 111.131 320.88 110.803 321.224C110.483 321.56 110.323 322.044 110.323 322.676C110.323 323.308 110.479 323.796 110.791 324.14C111.111 324.476 111.511 324.644 111.991 324.644ZM124.947 319.256C125.763 319.256 126.419 319.508 126.915 320.012C127.419 320.508 127.671 321.204 127.671 322.1V326H125.991V322.328C125.991 321.808 125.859 321.412 125.595 321.14C125.331 320.86 124.971 320.72 124.515 320.72C124.059 320.72 123.695 320.86 123.423 321.14C123.159 321.412 123.027 321.808 123.027 322.328V326H121.347V322.328C121.347 321.808 121.215 321.412 120.951 321.14C120.687 320.86 120.327 320.72 119.871 320.72C119.407 320.72 119.039 320.86 118.767 321.14C118.503 321.412 118.371 321.808 118.371 322.328V326H116.691V319.352H118.371V320.156C118.587 319.876 118.863 319.656 119.199 319.496C119.543 319.336 119.919 319.256 120.327 319.256C120.847 319.256 121.311 319.368 121.719 319.592C122.127 319.808 122.443 320.12 122.667 320.528C122.883 320.144 123.195 319.836 123.603 319.604C124.019 319.372 124.467 319.256 124.947 319.256ZM130.946 320.312C131.162 320.008 131.458 319.756 131.834 319.556C132.218 319.348 132.654 319.244 133.142 319.244C133.71 319.244 134.222 319.384 134.678 319.664C135.142 319.944 135.506 320.344 135.77 320.864C136.042 321.376 136.178 321.972 136.178 322.652C136.178 323.332 136.042 323.936 135.77 324.464C135.506 324.984 135.142 325.388 134.678 325.676C134.222 325.964 133.71 326.108 133.142 326.108C132.654 326.108 132.222 326.008 131.846 325.808C131.478 325.608 131.178 325.356 130.946 325.052V329.168H129.266V319.352H130.946V320.312ZM134.462 322.652C134.462 322.252 134.378 321.908 134.21 321.62C134.05 321.324 133.834 321.1 133.562 320.948C133.298 320.796 133.01 320.72 132.698 320.72C132.394 320.72 132.106 320.8 131.834 320.96C131.57 321.112 131.354 321.336 131.186 321.632C131.026 321.928 130.946 322.276 130.946 322.676C130.946 323.076 131.026 323.424 131.186 323.72C131.354 324.016 131.57 324.244 131.834 324.404C132.106 324.556 132.394 324.632 132.698 324.632C133.01 324.632 133.298 324.552 133.562 324.392C133.834 324.232 134.05 324.004 134.21 323.708C134.378 323.412 134.462 323.06 134.462 322.652ZM139.078 317.12V326H137.398V317.12H139.078ZM141.59 318.56C141.294 318.56 141.046 318.468 140.846 318.284C140.654 318.092 140.558 317.856 140.558 317.576C140.558 317.296 140.654 317.064 140.846 316.88C141.046 316.688 141.294 316.592 141.59 316.592C141.886 316.592 142.13 316.688 142.322 316.88C142.522 317.064 142.622 317.296 142.622 317.576C142.622 317.856 142.522 318.092 142.322 318.284C142.13 318.468 141.886 318.56 141.59 318.56ZM142.418 319.352V326H140.738V319.352H142.418ZM143.646 322.652C143.646 321.98 143.778 321.384 144.042 320.864C144.314 320.344 144.678 319.944 145.134 319.664C145.598 319.384 146.114 319.244 146.682 319.244C147.178 319.244 147.61 319.344 147.978 319.544C148.354 319.744 148.654 319.996 148.878 320.3V319.352H150.57V326H148.878V325.028C148.662 325.34 148.362 325.6 147.978 325.808C147.602 326.008 147.166 326.108 146.67 326.108C146.11 326.108 145.598 325.964 145.134 325.676C144.678 325.388 144.314 324.984 144.042 324.464C143.778 323.936 143.646 323.332 143.646 322.652ZM148.878 322.676C148.878 322.268 148.798 321.92 148.638 321.632C148.478 321.336 148.262 321.112 147.99 320.96C147.718 320.8 147.426 320.72 147.114 320.72C146.802 320.72 146.514 320.796 146.25 320.948C145.986 321.1 145.77 321.324 145.602 321.62C145.442 321.908 145.362 322.252 145.362 322.652C145.362 323.052 145.442 323.404 145.602 323.708C145.77 324.004 145.986 324.232 146.25 324.392C146.522 324.552 146.81 324.632 147.114 324.632C147.426 324.632 147.718 324.556 147.99 324.404C148.262 324.244 148.478 324.02 148.638 323.732C148.798 323.436 148.878 323.084 148.878 322.676ZM155.895 319.256C156.687 319.256 157.327 319.508 157.815 320.012C158.303 320.508 158.547 321.204 158.547 322.1V326H156.867V322.328C156.867 321.8 156.735 321.396 156.471 321.116C156.207 320.828 155.847 320.684 155.391 320.684C154.927 320.684 154.559 320.828 154.287 321.116C154.023 321.396 153.891 321.8 153.891 322.328V326H152.211V319.352H153.891V320.18C154.115 319.892 154.399 319.668 154.743 319.508C155.095 319.34 155.479 319.256 155.895 319.256ZM159.712 322.676C159.712 321.988 159.852 321.388 160.132 320.876C160.412 320.356 160.8 319.956 161.296 319.676C161.792 319.388 162.36 319.244 163 319.244C163.824 319.244 164.504 319.452 165.04 319.868C165.584 320.276 165.948 320.852 166.132 321.596H164.32C164.224 321.308 164.06 321.084 163.828 320.924C163.604 320.756 163.324 320.672 162.988 320.672C162.508 320.672 162.128 320.848 161.848 321.2C161.568 321.544 161.428 322.036 161.428 322.676C161.428 323.308 161.568 323.8 161.848 324.152C162.128 324.496 162.508 324.668 162.988 324.668C163.668 324.668 164.112 324.364 164.32 323.756H166.132C165.948 324.476 165.584 325.048 165.04 325.472C164.496 325.896 163.816 326.108 163 326.108C162.36 326.108 161.792 325.968 161.296 325.688C160.8 325.4 160.412 325 160.132 324.488C159.852 323.968 159.712 323.364 159.712 322.676ZM173.543 322.532C173.543 322.772 173.527 322.988 173.495 323.18H168.635C168.675 323.66 168.843 324.036 169.139 324.308C169.435 324.58 169.799 324.716 170.231 324.716C170.855 324.716 171.299 324.448 171.563 323.912H173.375C173.183 324.552 172.815 325.08 172.271 325.496C171.727 325.904 171.059 326.108 170.267 326.108C169.627 326.108 169.051 325.968 168.539 325.688C168.035 325.4 167.639 324.996 167.351 324.476C167.071 323.956 166.931 323.356 166.931 322.676C166.931 321.988 167.071 321.384 167.351 320.864C167.631 320.344 168.023 319.944 168.527 319.664C169.031 319.384 169.611 319.244 170.267 319.244C170.899 319.244 171.463 319.38 171.959 319.652C172.463 319.924 172.851 320.312 173.123 320.816C173.403 321.312 173.543 321.884 173.543 322.532ZM171.803 322.052C171.795 321.62 171.639 321.276 171.335 321.02C171.031 320.756 170.659 320.624 170.219 320.624C169.803 320.624 169.451 320.752 169.163 321.008C168.883 321.256 168.711 321.604 168.647 322.052H171.803ZM177.221 321.8C177.221 320.976 177.405 320.24 177.773 319.592C178.149 318.936 178.657 318.428 179.297 318.068C179.945 317.7 180.669 317.516 181.469 317.516C182.405 317.516 183.225 317.756 183.929 318.236C184.633 318.716 185.125 319.38 185.405 320.228H183.473C183.281 319.828 183.009 319.528 182.657 319.328C182.313 319.128 181.913 319.028 181.457 319.028C180.969 319.028 180.533 319.144 180.149 319.376C179.773 319.6 179.477 319.92 179.261 320.336C179.053 320.752 178.949 321.24 178.949 321.8C178.949 322.352 179.053 322.84 179.261 323.264C179.477 323.68 179.773 324.004 180.149 324.236C180.533 324.46 180.969 324.572 181.457 324.572C181.913 324.572 182.313 324.472 182.657 324.272C183.009 324.064 183.281 323.76 183.473 323.36H185.405C185.125 324.216 184.633 324.884 183.929 325.364C183.233 325.836 182.413 326.072 181.469 326.072C180.669 326.072 179.945 325.892 179.297 325.532C178.657 325.164 178.149 324.656 177.773 324.008C177.405 323.36 177.221 322.624 177.221 321.8ZM189.792 326.108C189.152 326.108 188.576 325.968 188.064 325.688C187.552 325.4 187.148 324.996 186.852 324.476C186.564 323.956 186.42 323.356 186.42 322.676C186.42 321.996 186.568 321.396 186.864 320.876C187.168 320.356 187.58 319.956 188.1 319.676C188.62 319.388 189.2 319.244 189.84 319.244C190.48 319.244 191.06 319.388 191.58 319.676C192.1 319.956 192.508 320.356 192.804 320.876C193.108 321.396 193.26 321.996 193.26 322.676C193.26 323.356 193.104 323.956 192.792 324.476C192.488 324.996 192.072 325.4 191.544 325.688C191.024 325.968 190.44 326.108 189.792 326.108ZM189.792 324.644C190.096 324.644 190.38 324.572 190.644 324.428C190.916 324.276 191.132 324.052 191.292 323.756C191.452 323.46 191.532 323.1 191.532 322.676C191.532 322.044 191.364 321.56 191.028 321.224C190.7 320.88 190.296 320.708 189.816 320.708C189.336 320.708 188.932 320.88 188.604 321.224C188.284 321.56 188.124 322.044 188.124 322.676C188.124 323.308 188.28 323.796 188.592 324.14C188.912 324.476 189.312 324.644 189.792 324.644ZM198.176 319.256C198.968 319.256 199.608 319.508 200.096 320.012C200.584 320.508 200.828 321.204 200.828 322.1V326H199.148V322.328C199.148 321.8 199.016 321.396 198.752 321.116C198.488 320.828 198.128 320.684 197.672 320.684C197.208 320.684 196.84 320.828 196.568 321.116C196.304 321.396 196.172 321.8 196.172 322.328V326H194.492V319.352H196.172V320.18C196.396 319.892 196.68 319.668 197.024 319.508C197.376 319.34 197.76 319.256 198.176 319.256ZM204.97 326.108C204.426 326.108 203.938 326.012 203.506 325.82C203.074 325.62 202.73 325.352 202.474 325.016C202.226 324.68 202.09 324.308 202.066 323.9H203.758C203.79 324.156 203.914 324.368 204.13 324.536C204.354 324.704 204.63 324.788 204.958 324.788C205.278 324.788 205.526 324.724 205.702 324.596C205.886 324.468 205.978 324.304 205.978 324.104C205.978 323.888 205.866 323.728 205.642 323.624C205.426 323.512 205.078 323.392 204.598 323.264C204.102 323.144 203.694 323.02 203.374 322.892C203.062 322.764 202.79 322.568 202.558 322.304C202.334 322.04 202.222 321.684 202.222 321.236C202.222 320.868 202.326 320.532 202.534 320.228C202.75 319.924 203.054 319.684 203.446 319.508C203.846 319.332 204.314 319.244 204.85 319.244C205.642 319.244 206.274 319.444 206.746 319.844C207.218 320.236 207.478 320.768 207.526 321.44H205.918C205.894 321.176 205.782 320.968 205.582 320.816C205.39 320.656 205.13 320.576 204.802 320.576C204.498 320.576 204.262 320.632 204.094 320.744C203.934 320.856 203.854 321.012 203.854 321.212C203.854 321.436 203.966 321.608 204.19 321.728C204.414 321.84 204.762 321.956 205.234 322.076C205.714 322.196 206.11 322.32 206.422 322.448C206.734 322.576 207.002 322.776 207.226 323.048C207.458 323.312 207.578 323.664 207.586 324.104C207.586 324.488 207.478 324.832 207.262 325.136C207.054 325.44 206.75 325.68 206.35 325.856C205.958 326.024 205.498 326.108 204.97 326.108ZM215.241 319.352V326H213.549V325.16C213.333 325.448 213.049 325.676 212.697 325.844C212.353 326.004 211.977 326.084 211.569 326.084C211.049 326.084 210.589 325.976 210.189 325.76C209.789 325.536 209.473 325.212 209.241 324.788C209.017 324.356 208.905 323.844 208.905 323.252V319.352H210.585V323.012C210.585 323.54 210.717 323.948 210.981 324.236C211.245 324.516 211.605 324.656 212.061 324.656C212.525 324.656 212.889 324.516 213.153 324.236C213.417 323.948 213.549 323.54 213.549 323.012V319.352H215.241ZM218.578 317.12V326H216.898V317.12H218.578ZM222.194 320.732V323.948C222.194 324.172 222.246 324.336 222.35 324.44C222.462 324.536 222.646 324.584 222.902 324.584H223.682V326H222.626C221.21 326 220.502 325.312 220.502 323.936V320.732H219.71V319.352H220.502V317.708H222.194V319.352H223.682V320.732H222.194ZM224.458 322.652C224.458 321.98 224.59 321.384 224.854 320.864C225.127 320.344 225.491 319.944 225.947 319.664C226.411 319.384 226.927 319.244 227.495 319.244C227.991 319.244 228.423 319.344 228.791 319.544C229.167 319.744 229.467 319.996 229.691 320.3V319.352H231.383V326H229.691V325.028C229.475 325.34 229.175 325.6 228.791 325.808C228.415 326.008 227.979 326.108 227.483 326.108C226.923 326.108 226.411 325.964 225.947 325.676C225.491 325.388 225.127 324.984 224.854 324.464C224.59 323.936 224.458 323.332 224.458 322.652ZM229.691 322.676C229.691 322.268 229.611 321.92 229.451 321.632C229.291 321.336 229.075 321.112 228.803 320.96C228.531 320.8 228.239 320.72 227.927 320.72C227.615 320.72 227.327 320.796 227.062 320.948C226.799 321.1 226.583 321.324 226.415 321.62C226.255 321.908 226.175 322.252 226.175 322.652C226.175 323.052 226.255 323.404 226.415 323.708C226.583 324.004 226.799 324.232 227.062 324.392C227.335 324.552 227.623 324.632 227.927 324.632C228.239 324.632 228.531 324.556 228.803 324.404C229.075 324.244 229.291 324.02 229.451 323.732C229.611 323.436 229.691 323.084 229.691 322.676ZM236.707 319.256C237.499 319.256 238.139 319.508 238.627 320.012C239.115 320.508 239.359 321.204 239.359 322.1V326H237.679V322.328C237.679 321.8 237.547 321.396 237.283 321.116C237.019 320.828 236.659 320.684 236.203 320.684C235.739 320.684 235.371 320.828 235.099 321.116C234.835 321.396 234.703 321.8 234.703 322.328V326H233.023V319.352H234.703V320.18C234.927 319.892 235.211 319.668 235.555 319.508C235.907 319.34 236.291 319.256 236.707 319.256ZM240.525 322.676C240.525 321.988 240.665 321.388 240.945 320.876C241.225 320.356 241.613 319.956 242.109 319.676C242.605 319.388 243.173 319.244 243.813 319.244C244.637 319.244 245.317 319.452 245.853 319.868C246.397 320.276 246.761 320.852 246.945 321.596H245.133C245.037 321.308 244.873 321.084 244.641 320.924C244.417 320.756 244.137 320.672 243.801 320.672C243.321 320.672 242.941 320.848 242.661 321.2C242.381 321.544 242.241 322.036 242.241 322.676C242.241 323.308 242.381 323.8 242.661 324.152C242.941 324.496 243.321 324.668 243.801 324.668C244.481 324.668 244.925 324.364 245.133 323.756H246.945C246.761 324.476 246.397 325.048 245.853 325.472C245.309 325.896 244.629 326.108 243.813 326.108C243.173 326.108 242.605 325.968 242.109 325.688C241.613 325.4 241.225 325 240.945 324.488C240.665 323.968 240.525 323.364 240.525 322.676ZM254.536 319.352L250.42 329.144H248.632L250.072 325.832L247.408 319.352H249.292L251.008 323.996L252.748 319.352H254.536Z" fill="black"/>
<path d="M563.318 292.385C556.85 291.836 551.774 286.451 551.774 279.886C551.774 273.358 556.815 267.92 563.369 267.384M563.318 292.385L563.358 292.389C570.311 292.964 576.418 287.833 576.997 280.928M563.318 292.385C564.7 289.463 565.818 285.195 564.621 282.358M577.002 280.925C577.027 281.268 577.039 281.612 577.039 281.956C577.039 290.027 570.45 296.57 562.321 296.57C554.192 296.57 547.607 290.027 547.607 281.955C547.607 273.885 554.196 267.342 562.324 267.342C562.673 267.342 563.023 267.354 563.373 267.379M564.621 282.358C563.917 280.693 562.413 279.52 559.695 279.404M564.621 282.358C565.469 281.66 566.379 280.65 568.286 280.176M544.642 280.442C545.41 271.287 553.117 264.246 562.367 264.245C572.192 264.245 580.155 272.154 580.155 281.909C580.155 291.102 573.054 298.758 563.827 299.513M544.632 280.448C544.597 279.965 544.579 279.48 544.578 278.996C544.578 267.631 553.856 258.418 565.301 258.418C576.746 258.418 586.024 267.631 586.024 278.996C586.024 290.361 576.746 299.574 565.301 299.574C564.808 299.574 564.315 299.556 563.823 299.522M565.271 279.371C566.765 277.999 568.623 277.907 570.782 277.215C570.656 279.923 570.946 284.487 565.011 283.009C559.504 285.257 555.506 281.054 556.452 275.927C558.84 277.51 563.18 275.625 565.271 279.371Z" stroke="white" stroke-width="2" stroke-linecap="round" stroke-linejoin="round"/>
<path d="M321.781 162.197H318.154V161.924C318.154 160.637 318.154 159.353 318.157 158.065C318.157 157.904 318.11 157.795 317.982 157.693C316.867 156.784 315.758 155.866 314.646 154.951C314.58 154.898 314.511 154.845 314.43 154.777C313.955 155.115 313.481 155.453 313.006 155.788C312.24 156.334 311.475 156.883 310.703 157.426C310.569 157.522 310.516 157.622 310.516 157.786C310.516 160.938 310.506 164.093 310.5 167.244C310.488 173.929 310.475 180.615 310.463 187.303C310.463 187.582 310.447 187.861 310.463 188.14C310.469 188.23 310.525 188.348 310.6 188.401C311.865 189.307 313.137 190.203 314.405 191.109C314.521 191.193 314.596 191.19 314.708 191.103C315.87 190.228 317.039 189.359 318.198 188.482C318.279 188.419 318.335 188.28 318.335 188.174C318.345 186.84 318.341 185.51 318.341 184.176V183.881H322.078C322.078 183.962 322.078 184.042 322.078 184.126C322.078 186.217 322.078 188.311 322.081 190.402C322.081 190.569 322.028 190.669 321.893 190.765C319.485 192.52 317.079 194.282 314.677 196.044C314.546 196.141 314.458 196.156 314.315 196.051C311.937 194.307 309.554 192.567 307.17 190.83C307.051 190.743 307.001 190.653 307.001 190.504C307.004 178.791 307.004 167.077 307.001 155.363C307.001 155.218 307.045 155.121 307.158 155.031C309.488 153.151 311.819 151.269 314.143 149.379C314.265 149.283 314.34 149.286 314.458 149.379C316.845 151.241 319.235 153.096 321.622 154.96C321.7 155.022 321.778 155.143 321.778 155.239C321.787 157.516 321.784 159.793 321.784 162.073C321.784 162.104 321.778 162.135 321.772 162.194L321.781 162.197Z" fill="#FF6633"/>
<path d="M303.962 174.277V174.268L303.918 174.255L301.584 172.974V171.895L303.918 170.589L303.959 170.57V156.75L293.012 165.067L293.146 180.059L303.965 188.178V174.274L303.962 174.277ZM300.254 179.606L296.442 177.271L296.43 174.935L300.25 175.937V179.606H300.254ZM298.229 169.878L296.195 169.853V167.694L300.375 164.453L300.391 168.383L298.229 169.878Z" fill="#00B8F5"/>
<path d="M324.814 157.29V174.553H332.359V170.409H328.669V164.98L332.496 167.443L332.599 168.948H335.748L335.83 165.824L324.814 157.29Z" fill="#00B8F5"/>
<path d="M324.98 178.362H328.516L328.519 181.067L332.343 178.84V174.361H335.767L335.911 181.089L324.98 188.733V178.362Z" fill="#00B8F5"/>
<path d="M332.359 170.409V174.553L335.88 174.479L335.911 170.409H331.887L332 174.553L335.258 174.479" fill="#00B8F5"/>
<path d="M335.898 171.327L335.902 172.05L335.911 181.089L334.771 178.846L335.42 173.995" fill="#00B8F5"/>
<path d="M332.496 167.443L332.49 168.978L335.748 168.947L332.49 167.524" fill="#00B8F5"/>
<path d="M303.972 174.268V174.28L303.962 174.277L303.921 174.255L303.962 174.268H303.972Z" fill="#208CD9"/>
</g>
<defs>
<filter id="filter0_f_3310_69019" x="237.728" y="217.619" width="163.864" height="16.6496" filterUnits="userSpaceOnUse" color-interpolation-filters="sRGB">
<feFlood flood-opacity="0" result="BackgroundImageFix"/>
<feBlend mode="normal" in="SourceGraphic" in2="BackgroundImageFix" result="shape"/>
<feGaussianBlur stdDeviation="3.75408" result="effect1_foregroundBlur_3310_69019"/>
</filter>
<filter id="filter1_d_3310_69019" x="103.569" y="198.002" width="146.958" height="146.584" filterUnits="userSpaceOnUse" color-interpolation-filters="sRGB">
<feFlood flood-opacity="0" result="BackgroundImageFix"/>
<feColorMatrix in="SourceAlpha" type="matrix" values="0 0 0 0 0 0 0 0 0 0 0 0 0 0 0 0 0 0 127 0" result="hardAlpha"/>
<feOffset dy="3.46423"/>
<feGaussianBlur stdDeviation="23.3835"/>
<feComposite in2="hardAlpha" operator="out"/>
<feColorMatrix type="matrix" values="0 0 0 0 0 0 0 0 0 0 0 0 0 0 0 0 0 0 0.08 0"/>
<feBlend mode="normal" in2="BackgroundImageFix" result="effect1_dropShadow_3310_69019"/>
<feBlend mode="normal" in="SourceGraphic" in2="effect1_dropShadow_3310_69019" result="shape"/>
</filter>
<filter id="filter2_d_3310_69019" x="379.008" y="21.6206" width="146.958" height="146.584" filterUnits="userSpaceOnUse" color-interpolation-filters="sRGB">
<feFlood flood-opacity="0" result="BackgroundImageFix"/>
<feColorMatrix in="SourceAlpha" type="matrix" values="0 0 0 0 0 0 0 0 0 0 0 0 0 0 0 0 0 0 127 0" result="hardAlpha"/>
<feOffset dy="3.46423"/>
<feGaussianBlur stdDeviation="23.3835"/>
<feComposite in2="hardAlpha" operator="out"/>
<feColorMatrix type="matrix" values="0 0 0 0 0 0 0 0 0 0 0 0 0 0 0 0 0 0 0.08 0"/>
<feBlend mode="normal" in2="BackgroundImageFix" result="effect1_dropShadow_3310_69019"/>
<feBlend mode="normal" in="SourceGraphic" in2="effect1_dropShadow_3310_69019" result="shape"/>
</filter>
<filter id="filter3_f_3310_69019" x="210.029" y="231.518" width="211.286" height="21.468" filterUnits="userSpaceOnUse" color-interpolation-filters="sRGB">
<feFlood flood-opacity="0" result="BackgroundImageFix"/>
<feBlend mode="normal" in="SourceGraphic" in2="BackgroundImageFix" result="shape"/>
<feGaussianBlur stdDeviation="4.84051" result="effect1_foregroundBlur_3310_69019"/>
</filter>
<filter id="filter4_d_3310_69019" x="-28.7975" y="58.1758" width="162.671" height="162.256" filterUnits="userSpaceOnUse" color-interpolation-filters="sRGB">
<feFlood flood-opacity="0" result="BackgroundImageFix"/>
<feColorMatrix in="SourceAlpha" type="matrix" values="0 0 0 0 0 0 0 0 0 0 0 0 0 0 0 0 0 0 127 0" result="hardAlpha"/>
<feOffset dy="3.83461"/>
<feGaussianBlur stdDeviation="25.8836"/>
<feComposite in2="hardAlpha" operator="out"/>
<feColorMatrix type="matrix" values="0 0 0 0 0 0 0 0 0 0 0 0 0 0 0 0 0 0 0.08 0"/>
<feBlend mode="normal" in2="BackgroundImageFix" result="effect1_dropShadow_3310_69019"/>
<feBlend mode="normal" in="SourceGraphic" in2="effect1_dropShadow_3310_69019" result="shape"/>
</filter>
<filter id="filter5_d_3310_69019" x="427.59" y="297.167" width="162.671" height="162.256" filterUnits="userSpaceOnUse" color-interpolation-filters="sRGB">
<feFlood flood-opacity="0" result="BackgroundImageFix"/>
<feColorMatrix in="SourceAlpha" type="matrix" values="0 0 0 0 0 0 0 0 0 0 0 0 0 0 0 0 0 0 127 0" result="hardAlpha"/>
<feOffset dy="3.83461"/>
<feGaussianBlur stdDeviation="25.8836"/>
<feComposite in2="hardAlpha" operator="out"/>
<feColorMatrix type="matrix" values="0 0 0 0 0 0 0 0 0 0 0 0 0 0 0 0 0 0 0.08 0"/>
<feBlend mode="normal" in2="BackgroundImageFix" result="effect1_dropShadow_3310_69019"/>
<feBlend mode="normal" in="SourceGraphic" in2="effect1_dropShadow_3310_69019" result="shape"/>
</filter>
<filter id="filter6_d_3310_69019" x="483.182" y="198.662" width="162.671" height="162.256" filterUnits="userSpaceOnUse" color-interpolation-filters="sRGB">
<feFlood flood-opacity="0" result="BackgroundImageFix"/>
<feColorMatrix in="SourceAlpha" type="matrix" values="0 0 0 0 0 0 0 0 0 0 0 0 0 0 0 0 0 0 127 0" result="hardAlpha"/>
<feOffset dy="3.83461"/>
<feGaussianBlur stdDeviation="25.8836"/>
<feComposite in2="hardAlpha" operator="out"/>
<feColorMatrix type="matrix" values="0 0 0 0 0 0 0 0 0 0 0 0 0 0 0 0 0 0 0.08 0"/>
<feBlend mode="normal" in2="BackgroundImageFix" result="effect1_dropShadow_3310_69019"/>
<feBlend mode="normal" in="SourceGraphic" in2="effect1_dropShadow_3310_69019" result="shape"/>
</filter>
<filter id="filter7_d_3310_69019" x="-18.4774" y="199.984" width="162.671" height="162.256" filterUnits="userSpaceOnUse" color-interpolation-filters="sRGB">
<feFlood flood-opacity="0" result="BackgroundImageFix"/>
<feColorMatrix in="SourceAlpha" type="matrix" values="0 0 0 0 0 0 0 0 0 0 0 0 0 0 0 0 0 0 127 0" result="hardAlpha"/>
<feOffset dy="3.83461"/>
<feGaussianBlur stdDeviation="25.8836"/>
<feComposite in2="hardAlpha" operator="out"/>
<feColorMatrix type="matrix" values="0 0 0 0 0 0 0 0 0 0 0 0 0 0 0 0 0 0 0.08 0"/>
<feBlend mode="normal" in2="BackgroundImageFix" result="effect1_dropShadow_3310_69019"/>
<feBlend mode="normal" in="SourceGraphic" in2="effect1_dropShadow_3310_69019" result="shape"/>
</filter>
<filter id="filter8_d_3310_69019" x="30.4561" y="-54.8742" width="162.671" height="162.256" filterUnits="userSpaceOnUse" color-interpolation-filters="sRGB">
<feFlood flood-opacity="0" result="BackgroundImageFix"/>
<feColorMatrix in="SourceAlpha" type="matrix" values="0 0 0 0 0 0 0 0 0 0 0 0 0 0 0 0 0 0 127 0" result="hardAlpha"/>
<feOffset dy="3.83461"/>
<feGaussianBlur stdDeviation="25.8836"/>
<feComposite in2="hardAlpha" operator="out"/>
<feColorMatrix type="matrix" values="0 0 0 0 0 0 0 0 0 0 0 0 0 0 0 0 0 0 0.08 0"/>
<feBlend mode="normal" in2="BackgroundImageFix" result="effect1_dropShadow_3310_69019"/>
<feBlend mode="normal" in="SourceGraphic" in2="effect1_dropShadow_3310_69019" result="shape"/>
</filter>
<filter id="filter9_d_3310_69019" x="65.6752" y="331.875" width="159.395" height="158.989" filterUnits="userSpaceOnUse" color-interpolation-filters="sRGB">
<feFlood flood-opacity="0" result="BackgroundImageFix"/>
<feColorMatrix in="SourceAlpha" type="matrix" values="0 0 0 0 0 0 0 0 0 0 0 0 0 0 0 0 0 0 127 0" result="hardAlpha"/>
<feOffset dy="3.75739"/>
<feGaussianBlur stdDeviation="25.3624"/>
<feComposite in2="hardAlpha" operator="out"/>
<feColorMatrix type="matrix" values="0 0 0 0 0 0 0 0 0 0 0 0 0 0 0 0 0 0 0.08 0"/>
<feBlend mode="normal" in2="BackgroundImageFix" result="effect1_dropShadow_3310_69019"/>
<feBlend mode="normal" in="SourceGraphic" in2="effect1_dropShadow_3310_69019" result="shape"/>
</filter>
<filter id="filter10_d_3310_69019" x="490.506" y="40.6568" width="162.671" height="162.256" filterUnits="userSpaceOnUse" color-interpolation-filters="sRGB">
<feFlood flood-opacity="0" result="BackgroundImageFix"/>
<feColorMatrix in="SourceAlpha" type="matrix" values="0 0 0 0 0 0 0 0 0 0 0 0 0 0 0 0 0 0 127 0" result="hardAlpha"/>
<feOffset dy="3.83461"/>
<feGaussianBlur stdDeviation="25.8836"/>
<feComposite in2="hardAlpha" operator="out"/>
<feColorMatrix type="matrix" values="0 0 0 0 0 0 0 0 0 0 0 0 0 0 0 0 0 0 0.08 0"/>
<feBlend mode="normal" in2="BackgroundImageFix" result="effect1_dropShadow_3310_69019"/>
<feBlend mode="normal" in="SourceGraphic" in2="effect1_dropShadow_3310_69019" result="shape"/>
</filter>
<linearGradient id="paint0_linear_3310_69019" x1="236.683" y1="221.535" x2="402.471" y2="221.535" gradientUnits="userSpaceOnUse">
<stop stop-color="#B7C2D0"/>
<stop offset="0.0295345" stop-color="#CAD4DB"/>
<stop offset="0.0625" stop-color="#BECCDE"/>
<stop offset="0.133609" stop-color="#B7C2D0" stop-opacity="0.3"/>
<stop offset="0.865967" stop-color="#B7C2D0" stop-opacity="0.3"/>
<stop offset="0.941937" stop-color="#BECCDE"/>
<stop offset="0.971275" stop-color="#CAD4DB"/>
<stop offset="0.996436" stop-color="#B7C2D0"/>
</linearGradient>
<linearGradient id="paint1_linear_3310_69019" x1="319.577" y1="223.005" x2="319.577" y2="226.761" gradientUnits="userSpaceOnUse">
<stop stop-color="#D1DBE9" stop-opacity="0.6"/>
<stop offset="1" stop-color="#AAB5C6" stop-opacity="0.6"/>
</linearGradient>
<linearGradient id="paint2_linear_3310_69019" x1="308.639" y1="221.453" x2="331.172" y2="221.453" gradientUnits="userSpaceOnUse">
<stop stop-color="#CFD9E7"/>
<stop offset="0.317518" stop-color="#CFD9E7" stop-opacity="0"/>
<stop offset="0.660584" stop-color="#CFD9E7" stop-opacity="0"/>
<stop offset="1" stop-color="#CFD9E7"/>
</linearGradient>
<linearGradient id="paint3_linear_3310_69019" x1="208.682" y1="236.566" x2="422.449" y2="236.566" gradientUnits="userSpaceOnUse">
<stop stop-color="#B7C2D0"/>
<stop offset="0.0295345" stop-color="#CAD4DB"/>
<stop offset="0.0625" stop-color="#BECCDE"/>
<stop offset="0.133609" stop-color="#B7C2D0" stop-opacity="0.3"/>
<stop offset="0.865967" stop-color="#B7C2D0" stop-opacity="0.3"/>
<stop offset="0.941937" stop-color="#BECCDE"/>
<stop offset="0.971275" stop-color="#CAD4DB"/>
<stop offset="0.996436" stop-color="#B7C2D0"/>
</linearGradient>
<linearGradient id="paint4_linear_3310_69019" x1="315.565" y1="238.461" x2="315.565" y2="243.305" gradientUnits="userSpaceOnUse">
<stop stop-color="#D1DBE9" stop-opacity="0.6"/>
<stop offset="1" stop-color="#AAB5C6" stop-opacity="0.6"/>
</linearGradient>
<linearGradient id="paint5_linear_3310_69019" x1="301.462" y1="236.46" x2="330.516" y2="236.46" gradientUnits="userSpaceOnUse">
<stop stop-color="#CFD9E7"/>
<stop offset="0.317518" stop-color="#CFD9E7" stop-opacity="0"/>
<stop offset="0.660584" stop-color="#CFD9E7" stop-opacity="0"/>
<stop offset="1" stop-color="#CFD9E7"/>
</linearGradient>
<clipPath id="clip0_3310_69019">
<rect width="640" height="357" rx="20" fill="white"/>
</clipPath>
<clipPath id="clip1_3310_69019">
<rect width="30.8434" height="30.6273" fill="white" transform="translate(37.5903 120.595)"/>
</clipPath>
</defs>
</svg>
