<svg width="65" height="75" viewBox="0 0 65 75" fill="none" xmlns="http://www.w3.org/2000/svg">
<path d="M13.8298 14.9656C13.4495 14.9656 13.1383 15.2752 13.1383 15.6537V19.7821C13.1383 20.1606 13.4495 20.4702 13.8298 20.4702H47.0213C47.4016 20.4702 47.7128 20.1606 47.7128 19.7821V15.6537C47.7128 15.2752 47.4016 14.9656 47.0213 14.9656H13.8298ZM29.734 27.3509H13.8298C13.4495 27.3509 13.1383 27.6606 13.1383 28.039V32.1674C13.1383 32.5459 13.4495 32.8555 13.8298 32.8555H29.734C30.1144 32.8555 30.4255 32.5459 30.4255 32.1674V28.039C30.4255 27.6606 30.1144 27.3509 29.734 27.3509ZM25.5851 66.7431H6.2234V6.19266H54.6277V33.7156C54.6277 34.094 54.9388 34.4037 55.3191 34.4037H60.1596C60.5399 34.4037 60.8511 34.094 60.8511 33.7156V2.75229C60.8511 1.22993 59.615 0 58.0851 0H2.76596C1.23604 0 0 1.22993 0 2.75229V70.1835C0 71.7058 1.23604 72.9358 2.76596 72.9358H25.5851C25.9654 72.9358 26.2766 72.6261 26.2766 72.2477V67.4312C26.2766 67.0528 25.9654 66.7431 25.5851 66.7431ZM63.617 59.1743H51.1702V56.0264C55.1722 54.8395 58.0851 51.1583 58.0851 46.789C58.0851 41.465 53.7547 37.156 48.4043 37.156C43.0539 37.156 38.7234 41.465 38.7234 46.789C38.7234 51.1497 41.6363 54.8395 45.6383 56.0264V59.1743H33.1915C32.4308 59.1743 31.8085 59.7936 31.8085 60.5505V73.6239C31.8085 74.3807 32.4308 75 33.1915 75H63.617C64.3777 75 65 74.3807 65 73.6239V60.5505C65 59.7936 64.3777 59.1743 63.617 59.1743ZM44.0824 46.789C44.0824 44.4151 46.0186 42.4885 48.4043 42.4885C50.7899 42.4885 52.7261 44.4151 52.7261 46.789C52.7261 49.1628 50.7899 51.0894 48.4043 51.0894C46.0186 51.0894 44.0824 49.1628 44.0824 46.789ZM59.641 69.6674H37.1676V64.5069H59.641V69.6674Z" fill="#CF552C"/>
</svg>
